<?xml version="1.0" encoding="UTF-8" standalone="no"?>
<svg
   data-name="Layer 1"
   width="786.81995"
   height="572.25773"
   viewBox="0 0 786.81995 572.25773"
   version="1.1"
   id="svg96"
   sodipodi:docname="undraw_programming_re_kg9v.svg"
   inkscape:export-filename="undraw_programming_re_kg9v.png"
   inkscape:export-xdpi="96"
   inkscape:export-ydpi="96"
   inkscape:version="1.3.2 (091e20ef0f, 2023-11-25)"
   xml:space="preserve"
   xmlns:inkscape="http://www.inkscape.org/namespaces/inkscape"
   xmlns:sodipodi="http://sodipodi.sourceforge.net/DTD/sodipodi-0.dtd"
   xmlns="http://www.w3.org/2000/svg"
   xmlns:svg="http://www.w3.org/2000/svg"><defs
     id="defs96" /><sodipodi:namedview
     id="namedview96"
     pagecolor="#ffffff"
     bordercolor="#000000"
     borderopacity="0.25"
     inkscape:showpageshadow="2"
     inkscape:pageopacity="0.0"
     inkscape:pagecheckerboard="0"
     inkscape:deskcolor="#d1d1d1"
     inkscape:zoom="1.2726808"
     inkscape:cx="400.72891"
     inkscape:cy="381.47821"
     inkscape:window-width="1920"
     inkscape:window-height="935"
     inkscape:window-x="0"
     inkscape:window-y="0"
     inkscape:window-maximized="1"
     inkscape:current-layer="g106" /><circle
     cx="458.32136"
     cy="74.18162"
     r="26.70075"
     fill="#f2f2f2"
     id="circle1" /><path
     d="M872.03753,661.02307c39.6877-30.22889,58.64352-81.02546,46.77635-129.48234q-.44231-1.806-.93367-3.6038c-7.86742-28.76343-27.33167-56.10058-55.7-65.29129-23.81971-7.71694-49.81962-1.78274-74.66936-4.85149-48.78136-6.02417-86.60057-45.494-113.21115-86.81933-26.61064-41.32546-47.06182-87.58331-82.42157-121.72413-58.28479-56.27536-153.36192-68.39149-225.62671-31.76044C293.98673,254.12142,247.95487,335.39062,249.918,416.38554c1.96322,80.995,50.04632,158.43176,119.87492,199.517,25.65222,15.093,55.32138,25.78522,84.84826,22.04377,25.62011-3.24641,48.89908-17.01264,74.39861-21.09959,40.09115-6.42568,79.92687,11.70084,114.60268,32.82375,34.67571,21.12288,68.17007,46.15988,107.57436,55.95242C789.47831,715.13139,836.88051,687.80109,872.03753,661.02307Z"
     transform="translate(-206.59003 -163.87113)"
     fill="#f2f2f2"
     id="path1" /><path
     d="M815.016,219.19108c-.87006-.58-1.75-1.13-2.62006-1.69a380.24008,380.24008,0,0,0-80.31-38.93l-6.54,90.22h-41.46v-103.39c-2.61-.54-5.24-1.05-7.87-1.53v104.92H626.94587A102.26992,102.26992,0,0,1,524.67595,166.5212v-.0001c-2.64.57-5.26,1.18-7.88,1.83v100.44h-40.13l-6.23-86.03a380.8581,380.8581,0,0,0-81.94,43.53c-.44.3-.88.61-1.31.91-2.21,1.55-4.39,3.13-6.56,4.73v344.19h118.27l-2.09-28.95-11.5-158.95h231.59l-11.5,158.95-2.09,28.95h116.96v-353.45Q817.65591,220.90114,815.016,219.19108Zm-298.22,142.78h-33.39l-6.17-85.3h39.56Zm159.42,0h-56.08v-1.69a6.17975,6.17975,0,0,0-6.19-6.18h-24.38a6.17757,6.17757,0,0,0-6.18,6.18v1.69h-58.71v-85.3h151.54Zm7.87,0v-85.3h40.89l-6.17,85.3Z"
     transform="translate(-206.59003 -163.87113)"
     fill="#3f3d56"
     id="path2" /><path
     d="M206.59,598.16193a289.0029,289.0029,0,0,0,28.12,28.95l730.58,1a289.0029,289.0029,0,0,0,28.12-28.95Z"
     transform="translate(-206.59003 -163.87113)"
     fill="#3f3d56"
     id="path3" /><path
     d="M702.01993,505.46245v85.704a4.12233,4.12233,0,0,0,4.11906,4.11907H833.14348a4.12232,4.12232,0,0,0,4.11907-4.11907v-85.704a4.12433,4.12433,0,0,0-4.11907-4.11452H706.139A4.12434,4.12434,0,0,0,702.01993,505.46245Z"
     transform="translate(-206.59003 -163.87113)"
     fill="#3f3d56"
     id="path4" /><path
     d="M704.99939,506.52881V590.1092a2.20523,2.20523,0,0,0,2.20141,2.20141H832.08626a2.20522,2.20522,0,0,0,2.20141-2.20141V506.52881a2.20621,2.20621,0,0,0-2.20141-2.206H707.2008A2.20623,2.20623,0,0,0,704.99939,506.52881Z"
     transform="translate(-206.59003 -163.87113)"
     fill="#6c63ff"
     id="path5" /><path
     d="M699.36376,607.881a2.46985,2.46985,0,0,0,1.94346.92984H837.29917a2.5024,2.5024,0,0,0,2.44606-3.0157l-2.111-10.02722a2.50694,2.50694,0,0,0-1.55811-1.81784,2.42467,2.42467,0,0,0-.888-.1675H703.40985a2.42446,2.42446,0,0,0-.888.1675,2.50671,2.50671,0,0,0-1.55811,1.81784l-2.111,10.02722A2.5005,2.5005,0,0,0,699.36376,607.881Z"
     transform="translate(-206.59003 -163.87113)"
     fill="#2f2e41"
     id="path6" /><rect
     x="830.03379"
     y="595.58843"
     width="4.18849"
     height="2.51309"
     rx="0.48819"
     transform="translate(1457.66604 1029.81882) rotate(-180)"
     fill="#3f3d56"
     id="rect6" /><rect
     x="821.65681"
     y="595.58843"
     width="4.18849"
     height="2.51309"
     rx="0.48819"
     transform="translate(1440.91208 1029.81882) rotate(-180)"
     fill="#3f3d56"
     id="rect7" /><rect
     x="813.27982"
     y="595.58843"
     width="4.18849"
     height="2.51309"
     rx="0.48819"
     transform="translate(1424.15811 1029.81882) rotate(-180)"
     fill="#3f3d56"
     id="rect8" /><rect
     x="804.90284"
     y="595.58843"
     width="4.18849"
     height="2.51309"
     rx="0.48819"
     transform="translate(1407.40415 1029.81882) rotate(-180)"
     fill="#3f3d56"
     id="rect9" /><rect
     x="796.52586"
     y="595.58843"
     width="4.18849"
     height="2.51309"
     rx="0.48819"
     transform="translate(1390.65018 1029.81882) rotate(-180)"
     fill="#3f3d56"
     id="rect10" /><rect
     x="788.14888"
     y="595.58843"
     width="4.18849"
     height="2.51309"
     rx="0.48819"
     transform="translate(1373.89622 1029.81882) rotate(-180)"
     fill="#3f3d56"
     id="rect11" /><rect
     x="779.7719"
     y="595.58843"
     width="4.18849"
     height="2.51309"
     rx="0.48819"
     transform="translate(1357.14226 1029.81882) rotate(-180)"
     fill="#3f3d56"
     id="rect12" /><rect
     x="771.39491"
     y="595.58843"
     width="4.18849"
     height="2.51309"
     rx="0.48819"
     transform="translate(1340.38829 1029.81882) rotate(-180)"
     fill="#3f3d56"
     id="rect13" /><rect
     x="763.01793"
     y="595.58843"
     width="4.18849"
     height="2.51309"
     rx="0.48819"
     transform="translate(1323.63433 1029.81882) rotate(-180)"
     fill="#3f3d56"
     id="rect14" /><rect
     x="754.64095"
     y="595.58843"
     width="4.18849"
     height="2.51309"
     rx="0.48819"
     transform="translate(1306.88037 1029.81882) rotate(-180)"
     fill="#3f3d56"
     id="rect15" /><rect
     x="746.26397"
     y="595.58843"
     width="4.18849"
     height="2.51309"
     rx="0.48819"
     transform="translate(1290.1264 1029.81882) rotate(-180)"
     fill="#3f3d56"
     id="rect16" /><rect
     x="737.88699"
     y="595.58843"
     width="4.18849"
     height="2.51309"
     rx="0.48819"
     transform="translate(1273.37244 1029.81882) rotate(-180)"
     fill="#3f3d56"
     id="rect17" /><rect
     x="729.51001"
     y="595.58843"
     width="4.18849"
     height="2.51309"
     rx="0.48819"
     transform="translate(1256.61847 1029.81882) rotate(-180)"
     fill="#3f3d56"
     id="rect18" /><rect
     x="721.13302"
     y="595.58843"
     width="4.18849"
     height="2.51309"
     rx="0.48819"
     transform="translate(1239.86451 1029.81882) rotate(-180)"
     fill="#3f3d56"
     id="rect19" /><rect
     x="712.75604"
     y="595.58843"
     width="4.18849"
     height="2.51309"
     rx="0.48819"
     transform="translate(1223.11055 1029.81882) rotate(-180)"
     fill="#3f3d56"
     id="rect20" /><rect
     x="704.37906"
     y="595.58843"
     width="4.18849"
     height="2.51309"
     rx="0.48819"
     transform="translate(1206.35658 1029.81882) rotate(-180)"
     fill="#3f3d56"
     id="rect21" /><rect
     x="830.13277"
     y="599.77692"
     width="4.18849"
     height="2.51309"
     rx="0.48819"
     transform="translate(1457.86401 1038.1958) rotate(-180)"
     fill="#3f3d56"
     id="rect22" /><rect
     x="821.75579"
     y="599.77692"
     width="4.18849"
     height="2.51309"
     rx="0.48819"
     transform="translate(1441.11005 1038.1958) rotate(-180)"
     fill="#3f3d56"
     id="rect23" /><rect
     x="813.37881"
     y="599.77692"
     width="4.18849"
     height="2.51309"
     rx="0.48819"
     transform="translate(1424.35608 1038.1958) rotate(-180)"
     fill="#3f3d56"
     id="rect24" /><rect
     x="805.00183"
     y="599.77692"
     width="4.18849"
     height="2.51309"
     rx="0.48819"
     transform="translate(1407.60212 1038.1958) rotate(-180)"
     fill="#3f3d56"
     id="rect25" /><rect
     x="796.62485"
     y="599.77692"
     width="4.18849"
     height="2.51309"
     rx="0.48819"
     transform="translate(1390.84816 1038.1958) rotate(-180)"
     fill="#3f3d56"
     id="rect26" /><rect
     x="788.24786"
     y="599.77692"
     width="4.18849"
     height="2.51309"
     rx="0.48819"
     transform="translate(1374.09419 1038.1958) rotate(-180)"
     fill="#3f3d56"
     id="rect27" /><rect
     x="779.87088"
     y="599.77692"
     width="4.18849"
     height="2.51309"
     rx="0.48819"
     transform="translate(1357.34023 1038.1958) rotate(-180)"
     fill="#3f3d56"
     id="rect28" /><rect
     x="771.4939"
     y="599.77692"
     width="4.18849"
     height="2.51309"
     rx="0.48819"
     transform="translate(1340.58627 1038.1958) rotate(-180)"
     fill="#3f3d56"
     id="rect29" /><rect
     x="763.11692"
     y="599.77692"
     width="4.18849"
     height="2.51309"
     rx="0.48819"
     transform="translate(1323.8323 1038.1958) rotate(-180)"
     fill="#3f3d56"
     id="rect30" /><rect
     x="754.73994"
     y="599.77692"
     width="4.18849"
     height="2.51309"
     rx="0.48819"
     transform="translate(1307.07834 1038.1958) rotate(-180)"
     fill="#3f3d56"
     id="rect31" /><rect
     x="746.36295"
     y="599.77692"
     width="4.18849"
     height="2.51309"
     rx="0.48819"
     transform="translate(1290.32437 1038.1958) rotate(-180)"
     fill="#3f3d56"
     id="rect32" /><rect
     x="737.98597"
     y="599.77692"
     width="4.18849"
     height="2.51309"
     rx="0.48819"
     transform="translate(1273.57041 1038.1958) rotate(-180)"
     fill="#3f3d56"
     id="rect33" /><rect
     x="729.60899"
     y="599.77692"
     width="4.18849"
     height="2.51309"
     rx="0.48819"
     transform="translate(1256.81645 1038.1958) rotate(-180)"
     fill="#3f3d56"
     id="rect34" /><rect
     x="721.23201"
     y="599.77692"
     width="4.18849"
     height="2.51309"
     rx="0.48819"
     transform="translate(1240.06248 1038.1958) rotate(-180)"
     fill="#3f3d56"
     id="rect35" /><rect
     x="712.85503"
     y="599.77692"
     width="4.18849"
     height="2.51309"
     rx="0.48819"
     transform="translate(1223.30852 1038.1958) rotate(-180)"
     fill="#3f3d56"
     id="rect36" /><rect
     x="704.47805"
     y="599.77692"
     width="4.18849"
     height="2.51309"
     rx="0.48819"
     transform="translate(1206.55456 1038.1958) rotate(-180)"
     fill="#3f3d56"
     id="rect37" /><rect
     x="760.60382"
     y="604.80311"
     width="33.50793"
     height="2.51309"
     rx="0.48819"
     transform="translate(1348.12555 1048.24818) rotate(-180)"
     fill="#3f3d56"
     id="rect38" /><rect
     x="515.63106"
     y="358.73707"
     width="5.96585"
     height="3.12216"
     rx="1.56108"
     fill="#fff"
     id="rect39" /><rect
     x="548.15407"
     y="358.73707"
     width="5.96585"
     height="3.12216"
     rx="1.56108"
     fill="#fff"
     id="rect40" /><rect
     x="557.36892"
     y="358.73707"
     width="5.96585"
     height="3.12216"
     rx="1.56108"
     fill="#fff"
     id="rect41" /><rect
     x="524.47742"
     y="358.4768"
     width="20.79613"
     height="3.12216"
     rx="1.56108"
     fill="#fff"
     id="rect42" /><rect
     x="567.84144"
     y="358.4768"
     width="20.79613"
     height="3.12216"
     rx="1.56108"
     fill="#fff"
     id="rect43" /><rect
     x="524.30386"
     y="365.78373"
     width="5.96585"
     height="3.12216"
     rx="1.56108"
     fill="#fff"
     id="rect44" /><rect
     x="556.82687"
     y="365.78373"
     width="5.96585"
     height="3.12216"
     rx="1.56108"
     fill="#fff"
     id="rect45" /><rect
     x="566.04172"
     y="365.78373"
     width="5.96585"
     height="3.12216"
     rx="1.56108"
     fill="#fff"
     id="rect46" /><rect
     x="533.15023"
     y="365.52345"
     width="20.79613"
     height="3.12216"
     rx="1.56108"
     fill="#fff"
     id="rect47" /><rect
     x="576.51424"
     y="365.52345"
     width="20.79613"
     height="3.12216"
     rx="1.56108"
     fill="#fff"
     id="rect48" /><rect
     x="532.97666"
     y="372.83038"
     width="5.96585"
     height="3.12216"
     rx="1.56108"
     fill="#fff"
     id="rect49" /><rect
     x="565.49967"
     y="372.83038"
     width="5.96585"
     height="3.12216"
     rx="1.56108"
     fill="#fff"
     id="rect50" /><rect
     x="574.71453"
     y="372.83038"
     width="5.96585"
     height="3.12216"
     rx="1.56108"
     fill="#fff"
     id="rect51" /><rect
     x="541.82303"
     y="372.57011"
     width="20.79613"
     height="3.12216"
     rx="1.56108"
     fill="#fff"
     id="rect52" /><rect
     x="585.18704"
     y="372.57011"
     width="20.79613"
     height="3.12216"
     rx="1.56108"
     fill="#fff"
     id="rect53" /><rect
     x="541.64947"
     y="379.87703"
     width="5.96585"
     height="3.12216"
     rx="1.56108"
     fill="#fff"
     id="rect54" /><rect
     x="574.17248"
     y="379.87703"
     width="5.96585"
     height="3.12216"
     rx="1.56108"
     fill="#fff"
     id="rect55" /><rect
     x="583.38733"
     y="379.87703"
     width="5.96585"
     height="3.12216"
     rx="1.56108"
     fill="#fff"
     id="rect56" /><rect
     x="550.49583"
     y="379.61676"
     width="20.79613"
     height="3.12216"
     rx="1.56108"
     fill="#fff"
     id="rect57" /><rect
     x="548.15407"
     y="407.89751"
     width="5.96585"
     height="3.12216"
     rx="1.56108"
     fill="#fff"
     id="rect58" /><rect
     x="557.36892"
     y="407.89751"
     width="5.96585"
     height="3.12216"
     rx="1.56108"
     fill="#fff"
     id="rect59" /><rect
     x="567.84144"
     y="408.15779"
     width="20.79613"
     height="3.12216"
     rx="1.56108"
     fill="#fff"
     id="rect60" /><rect
     x="515.63106"
     y="407.89751"
     width="5.96585"
     height="3.12216"
     rx="1.56108"
     fill="#fff"
     id="rect61" /><rect
     x="524.47742"
     y="408.15779"
     width="20.79613"
     height="3.12216"
     rx="1.56108"
     fill="#fff"
     id="rect62" /><rect
     x="524.30386"
     y="400.85086"
     width="5.96585"
     height="3.12216"
     rx="1.56108"
     fill="#fff"
     id="rect63" /><rect
     x="556.82687"
     y="400.85086"
     width="5.96585"
     height="3.12216"
     rx="1.56108"
     fill="#fff"
     id="rect64" /><rect
     x="566.04172"
     y="400.85086"
     width="5.96585"
     height="3.12216"
     rx="1.56108"
     fill="#fff"
     id="rect65" /><rect
     x="533.15023"
     y="401.11113"
     width="20.79613"
     height="3.12216"
     rx="1.56108"
     fill="#fff"
     id="rect66" /><rect
     x="532.97666"
     y="393.80421"
     width="5.96585"
     height="3.12216"
     rx="1.56108"
     fill="#fff"
     id="rect67" /><rect
     x="565.49967"
     y="393.80421"
     width="5.96585"
     height="3.12216"
     rx="1.56108"
     fill="#fff"
     id="rect68" /><rect
     x="574.71453"
     y="393.80421"
     width="5.96585"
     height="3.12216"
     rx="1.56108"
     fill="#fff"
     id="rect69" /><rect
     x="541.82303"
     y="394.06448"
     width="20.79613"
     height="3.12216"
     rx="1.56108"
     fill="#fff"
     id="rect70" /><rect
     x="541.64947"
     y="386.75755"
     width="5.96585"
     height="3.12216"
     rx="1.56108"
     fill="#fff"
     id="rect71" /><rect
     x="574.17248"
     y="386.75755"
     width="5.96585"
     height="3.12216"
     rx="1.56108"
     fill="#fff"
     id="rect72" /><rect
     x="583.38733"
     y="386.75755"
     width="5.96585"
     height="3.12216"
     rx="1.56108"
     fill="#fff"
     id="rect73" /><rect
     x="550.49583"
     y="387.01783"
     width="20.79613"
     height="3.12216"
     rx="1.56108"
     fill="#fff"
     id="rect74" /><path
     d="M711.50727,654.35273l-13.34954-21.10162,41.902-33.40283,17.29534-19.16107a19.16138,19.16138,0,0,1,32.418,6.8279h0a19.16136,19.16136,0,0,1-11.57015,23.991l-27.3488,10.07535Z"
     transform="translate(-206.59003 -163.87113)"
     fill="#ffb6b6"
     id="path74"
     style="fill:#7a4427;fill-opacity:1" /><path
     d="M398.28,501.35193v102.56h71.85v-102.56a3.448,3.448,0,0,0-2.43-3.3,3.1749,3.1749,0,0,0-1.03-.16H401.75A3.46328,3.46328,0,0,0,398.28,501.35193Zm28.04,35.24a7.67033,7.67033,0,0,1,15.34,0v11.9a7.6701,7.6701,0,0,1-15.34,0Z"
     transform="translate(-206.59003 -163.87113)"
     fill="#2f2e41"
     id="path75" /><path
     d="M398.06006,600.632v9.89a1.94622,1.94622,0,0,0,1.93,1.94h68.43a1.93972,1.93972,0,0,0,1.93-1.94v-9.89Z"
     transform="translate(-206.59003 -163.87113)"
     fill="#3f3d56"
     id="path76" /><path
     d="M285.25,346.832V534.09192a9.00714,9.00714,0,0,0,9,9h277.5a9.0071,9.0071,0,0,0,9-9V346.832a9.01147,9.01147,0,0,0-9-8.99H294.25A9.01151,9.01151,0,0,0,285.25,346.832Z"
     transform="translate(-206.59003 -163.87113)"
     fill="#3f3d56"
     id="path77" /><path
     d="M291.76,349.16193v182.62a4.81833,4.81833,0,0,0,4.81,4.81H569.44a4.81829,4.81829,0,0,0,4.81-4.81v-182.62a4.82047,4.82047,0,0,0-4.81-4.82H296.57A4.82051,4.82051,0,0,0,291.76,349.16193Z"
     transform="translate(-206.59003 -163.87113)"
     fill="#fff"
     id="path78" /><path
     d="M342.4,611.79193a2.9484,2.9484,0,0,0,2.32,1.11h162.34a2.98725,2.98725,0,0,0,2.92-3.6l-2.52-11.97a2.99264,2.99264,0,0,0-1.86-2.17,2.89454,2.89454,0,0,0-1.06-.19995H347.23a2.8943,2.8943,0,0,0-1.06.19995,2.99239,2.99239,0,0,0-1.86,2.17l-2.52,11.97A2.985,2.985,0,0,0,342.4,611.79193Z"
     transform="translate(-206.59003 -163.87113)"
     fill="#2f2e41"
     id="path79" /><path
     d="M560.58451,369.49866H305.26115a1.0156,1.0156,0,0,1,0-2.0307H560.58451a1.0156,1.0156,0,0,1,0,2.0307Z"
     transform="translate(-206.59003 -163.87113)"
     fill="#3f3d56"
     id="path80" /><ellipse
     cx="116.05131"
     cy="192.32963"
     rx="5.95043"
     ry="6.08304"
     fill="#3f3d56"
     id="ellipse80" /><ellipse
     cx="136.60733"
     cy="192.32963"
     rx="5.95043"
     ry="6.08304"
     fill="#3f3d56"
     id="ellipse81" /><ellipse
     cx="157.16336"
     cy="192.32963"
     rx="5.95043"
     ry="6.08304"
     fill="#3f3d56"
     id="ellipse82" /><path
     d="M548.20637,351.622h-14.6a1.1053,1.1053,0,0,0,0,2.21h14.6a1.10511,1.10511,0,0,0,0-2.21Z"
     transform="translate(-206.59003 -163.87113)"
     fill="#3f3d56"
     id="path82" /><path
     d="M548.20637,355.772h-14.6a1.10527,1.10527,0,0,0,0,2.21h14.6a1.10508,1.10508,0,0,0,0-2.21Z"
     transform="translate(-206.59003 -163.87113)"
     fill="#3f3d56"
     id="path83" /><path
     d="M548.20637,359.92194h-14.6a1.1053,1.1053,0,0,0,0,2.21h14.6a1.10511,1.10511,0,0,0,0-2.21Z"
     transform="translate(-206.59003 -163.87113)"
     fill="#3f3d56"
     id="path84" /><g
     id="g106"
     transform="matrix(-0.25595453,0,0,0.25595453,2746.0353,-115.45249)"
     style="display:inline"><path
       style="fill:#3c3827;stroke:none"
       d="m -152.14303,992.38675 c 3.66166,28.94815 17.81311,43.06235 34.6821,65.01465 5.50502,7.1639 3.88012,17.4175 10.64352,24.892 11.743974,12.9787 45.148224,14.6448 60.674384,8.0933 0,25.6177 -7.64194,65.4251 11.18518,85.9607 13.07857,14.2654 31.0331997,14.0393 48.81482,14.0393 28.87582,0 62.43966,4.1445 74.77081,-29 3.91251,-10.5163 2.22919,-22.9491 2.22919,-34 v -62 c 0,-8.2339 -1.85898,-19.0861 0.51388,-27 3.28745,-10.9641 13.725886,-20.58 17.793976,-32 1.38025,-3.8747 2.2225,-10.6241 5.96991,-12.9722 11.54471,-7.23375 26.78888,4.9415 34.10879,-13.02775 4.98926,-12.2478 1.61344,-30.92241 1.61344,-44.00001 0,-25.196 4.02807,-54.2083 -0.32871,-78.99996 -0.87005,-4.95087 -5.10306,-8.3501 -6.02545,-13 -1.49246,-7.52368 3.5632,-14.5939 0.83408,-23 -5.38044,-16.5726 -20.60764,-29.86942 -25.36264,-45.99616 -1.8761,-6.36285 8.95257,-13.37985 7.1875,-22.00384 -3.10611,-15.1763 -18.31769,-29.66925 -28.033936,-41 -17.74399,-20.69244 -48.52075,-39.05304 -76.27084,-41.82947 -10.14737,-1.01526 -19.4285603,4.03046 -29.0000003,3.43591 -13.0197297,-0.80871 -25.7197297,-5.27154 -38.9999997,-5.59179 -33.15668,-0.79956 -66.662894,11.10834 -94.000004,29.34033 -14.53391,9.69312 -41.72863,26.59943 -43.81173,45.64502 -0.86997,7.9541 9.21164,17.17126 7.60879,23 -3.59134,13.05991 -23.9067,17.54562 -27.86882,32 -2.14125,7.81155 -1.2282,17.61069 4.55092,23.67438 2.77937,2.91623 9.7095,5.12249 10.38889,9.42981 1.05095,6.6629 -5.59201,16.04693 -6.5679,22.89581 -1.73214,12.15637 0.69985,26.56336 0.69985,38.99996 v 67 c 0,11.10951 -0.40653,22.37371 10.00077,29.29711 8.15801,5.42705 22.60807,2.7029 31.99923,2.7029 M 0.85697367,676.38678 c 25.57977033,-10.86432 47.19189033,6.67505 63.00000033,25 32.59738,37.78735 48.301596,87.20059 54.718346,136 2.23303,16.98215 3.48151,34.87716 3.2778,51.99996 -0.0506,4.2561 0.44727,14.3919 -4.14428,16.3966 -25.599246,11.177 -19.991886,-30.1494 -21.696776,-44.39656 -5.98145,-49.98505 -19.03653,-101.52835 -50.57947,-142 -13.19156,-16.92566 -29.37857,-28.44354 -44.57562033,-43 m 51.00000033,14 1,1 -1,-1 m -30,1 1,1 -1,-1 m 37,6 1,1 -1,-1 m -20,133 13,12 v 1 c -11.48499,11.58859 -10,23.68927 -10,38.99996 v 65 c 0,10.563 -2.29218,24.29441 2.68442,34.00001 5.54422,10.8127 16.54763,11.99995 27.31558,11.99995 -13.03494,41.1911 -59.26514,64.934 -97,77 0.80108,-18.6576 1,-37.2754 1,-56 0,-10.6842 1.12407,-21.6663 -5.10494,-30.99915 -14.02769,-21.01781 -69.88096,-19.79821 -82.531644,1.9992 -10.15175,17.49165 -4.36342,48.39985 -4.36342,67.99995 -49.40503,-33.3689 -33,-117.24946 -33,-167.99996 13.47622,5.6672 43.00143,24.1693 54.000004,3 -15.783604,4.547 -42.222764,11.8314 -52.972224,-8.0902 -5.93114,-10.99201 -1.02778,-36.40473 -1.02778,-48.90976 8.18597,3.15784 18.85573,6.93652 26.95987,1.29706 8.69928,-6.05362 10.27659,-19.07041 13.85109,-28.29706 5.73141,-14.79422 23.909074,-34.90552 41.189044,-36.25772 5.47375,-0.42835 12.86639,3.98968 18,5.84415 8.92898,3.22552 19.13202,4.34371 25.90973,11.42901 10.49177,10.9679 17.5069197,26.31922 23.78160967,39.98456 3.06430003,6.67361 5.39279003,15.76077 11.35263033,20.44214 11.75507,9.23346 26.29111,-2.62461 26.95603,-15.44214 m -146.000004,7.42902 c -7.19243,0.992 -21.90908,0.70401 -27.60572,5.3125 -9.95651,8.05468 3.00884,14.81167 10.60572,14.08871 6.96394,-0.66272 19.96356,-0.57495 25.655874,-4.83948 8.90577,-6.67196 -0.42348,-15.69717 -8.655874,-14.56173 m 71.004624,0.40277 c -6.61282,2.11258 -7.961,11.42242 -1.89583,15.00384 6.3349,3.74069 26.95125,6.34464 33.7831797,3.42209 5.6185,-2.40347 5.79476,-10.93268 0.76776,-14.07947 -5.42246,-3.39435 -26.5688997,-6.2908 -32.6551097,-4.34646 m 109.99538,5.16821 c -16.74942,26.90109 -8,73.60526 -8,104.99996 0,16.0103 -1.02014,27.30421 8,41.00001 -9.37345,0 -20.0799,1.2637 -25.77161,-8.0401 -4.8595,-7.9434 -2.22839,-21.96621 -2.22839,-30.95991 v -68 c 0,-8.8136 -2.45182,-22.03783 1.91974,-29.96059 5.38195,-9.75397 16.44876,-9.03937 26.08026,-9.03937 m -227.000004,27 v 5.99996 h -1 l -4,-3 c 9.92277,35.8025 5,78.125 5,116.00001 -15.07685,-5.7911 -14,-19.2684 -14,-33.00001 0,-27.0979 1.96531,-54.9987 0,-82 l 14,-3.99996 m 77.000004,1 c -8.03902,18.67996 -12.36859,41.98266 -15.9159,61.99996 -1.07287,6.0542 -4.97932,16.0833 -1.62654,21.7863 4.42675,7.5297 28.27391,5.3622 35.54244,3.2137 v -2 c -8.73189,-2.5087 -22.98073,4.2624 -30.6821,-1.858 -4.87227,-3.872 -0.76097,-16.0376 0.34413,-21.142 4.43855,-20.5015 10.65707,-40.5817 15.33797,-61 l -1,-0.99996 h -2 m -90.000004,2.99996 1,1 -1,-1 m 11,7 1,1 -1,-1 m 108.000004,8 c 6.63203,21.6954 58.42318,12.246 64,-6 -13.4740303,3.1946 -22.8422603,14.821 -38,14.821 -10.07784,0 -16.92528,-6.4681 -26,-8.821 m 164.999996,10 1,1 -1,-1 m -17.999996,3 0.999996,1 -0.999996,-1 m 0.999996,2 1,1 -1,-1 m -188.999996,76.28941 c 12.47679,-1.6414 37.53956,-3.9922 47.69908,4.5 11.33633,9.47585 7.94466,33.08275 -7.69908,35.88115 -13.87102,2.4812 -10.78456,-13.1378 -21.00386,-13.5926 -11.98398,-0.5333 -10.18816,20.9745 -26.99228,12.0023 -17.675074,-9.4372 -10.576334,-36.34745 7.99614,-38.79085 m 140,2.7106 1,1 -1,-1 m 18,3 1,1 -1,-1 m -171.000004,5 c 1.987234,6.45705 9.987334,8.57435 16.000004,10.10415 15.54176,3.9544 32.52478,1.7752 46,-7.1042 v -1.99995 l -1,-1 c -25.16701,9.15845 -35.87139,7.23905 -61.000004,0 m 189.000004,1.99995 v 122 c 0,17.1632 3.71933,38.9138 -6.24848,54 -5.00955,7.5819 -12.27774,12.7143 -20.75152,15.76 -9.20569,3.3089 -19.3844,2.24 -29,2.24 -21.58249,0 -49.9014,4.9761 -65.32022,-14.0393 -15.43817,-19.0393 -9.67978,-50.0543 -9.67978,-72.9607 37.6270997,0 73.37262,-18.7414 94.65588,-50 7.82831,-11.4973 13.94006,-23.798 18.34412,-37 1.54364,-4.6273 2.59228,-16.0375 6.56402,-18.9722 2.75421,-2.03495 8.19364,-1.0278 11.43598,-1.0278 z"
       id="path98" /><path
       style="fill:#7a4427;fill-opacity:1;stroke-width:1.57179;stroke-dasharray:1.57179, 3.14358"
       d="m -24.108846,1034.0006 c 0.21431,-25.7182 0.052,-36.6125 -0.59484,-39.9307 -1.15654,-5.93279 -4.67477,-12.48336 -8.43636,-15.70764 -13.9102,-11.92324 -47.03073,-13.85564 -66.76226,-3.89519 -15.710574,7.93067 -19.620824,21.20393 -17.551634,59.57873 0.52403,9.7186 0.77396,17.849 0.55538,18.0676 -0.87161,0.8716 -13.35316,-11.9963 -17.10394,-17.6334 -14.9079,-22.4052 -19.35257,-52.67116 -16.29987,-110.99391 0.65042,-12.42645 1.18258,-25.92379 1.18258,-29.9941 0,-4.0703 0.13122,-7.40055 0.2916,-7.40055 0.16038,0 3.88664,1.68471 8.28058,3.7438 13.64263,6.39321 20.1383,8.31732 28.23039,8.36224 6.36123,0.0353 7.3073,-0.14625 10.47967,-2.01105 3.389044,-1.99217 7.869274,-7.2909 6.539464,-7.73418 -0.36338,-0.12112 -3.92731,0.60501 -7.919844,1.61363 -23.09769,5.83509 -36.82937,2.87624 -44.06434,-9.49482 -3.54157,-6.05573 -3.8608,-12.22485 -2.11499,-40.87244 l 0.4723,-7.75012 5.23896,1.80731 c 7.15595,2.46861 15.72052,2.59013 20.05141,0.2845 5.68715,-3.02765 8.95973,-8.34717 12.81435,-20.82945 2.84121,-9.2006 5.9894,-15.70886 10.49775,-21.70203 9.260274,-12.31014 18.695684,-19.44206 29.323684,-22.16483 5.22066,-1.33747 8.08742,-0.85059 16.36249,2.77896 2.77927,1.21902 8.41006,3.21959 12.51287,4.44572 4.10281,1.22612 9.3055,3.15986 11.56152,4.29719 4.84119,2.4406 10.76428,8.57243 16.13413,16.70273 4.05982,6.14682 12.9170297,23.75497 17.2359697,34.26512 4.37875,10.65571 7.7600803,14.88562 13.3827003,16.74125 8.74815,2.88715 19.68663,-3.9956 22.40724,-14.09916 l 0.78084,-2.89983 6.2341,5.67496 6.2341,5.67496 -1.73416,1.89339 c -4.21208,4.59885 -6.52893,9.39488 -7.84828,16.2464 -0.3508,1.82173 -0.70576,27.98836 -0.78879,58.14807 -0.16697,60.64489 -0.34061,58.16499 4.57288,65.30729 3.74457,5.44316 12.06366,8.99595 21.12631,9.02245 3.93264,0.011 3.9426,0.017 3.43855,2.0356 -0.27804,1.1133 -1.83531,4.7487 -3.4606,8.0788 -9.5672,19.6021 -28.1739,36.7885 -55.08452,50.8796 -10.2874803,5.3868 -34.646212,15.9046 -37.444352,15.9046 -0.24495,0 1.104872,-16.9893 1.266962,-36.4415 z m -38.40118,-74.37957 c 3.75365,-0.65367 4.66062,-1.07689 4.66062,-2.1748 0,-1.96826 -3.72359,-2.45297 -11.50894,-1.49816 -9.21946,1.13071 -13.42985,0.97859 -16.93214,-0.61174 -4.14242,-1.881 -5.149,-4.84486 -3.96859,-11.68551 1.11003,-6.43279 6.00007,-26.5197 12.46894,-51.21895 2.85061,-10.88417 5.00605,-20.07561 4.78986,-20.42543 -0.2162,-0.34981 -1.16557,-0.63603 -2.10971,-0.63603 -1.51506,0 -2.02608,0.88587 -4.35216,7.54453 -4.36666,12.50005 -6.1739,19.70325 -11.21871,44.71513 -5.25913,26.07444 -5.51872,29.53996 -2.45687,32.79915 0.94915,1.01033 3.23249,2.30134 5.07409,2.86893 4.11515,1.26828 19.04165,1.45689 25.55361,0.32288 z m 55.6659797,-59.48356 c 7.51697997,-1.95216 14.14659,-5.17009 18.4431203,-8.95204 3.33397,-2.93468 6.14535,-7.03091 5.36269,-7.81356 -0.75193,-0.75193 -7.6552103,2.09706 -15.5209203,6.40551 -17.8318197,9.76741 -23.2529297,10.19551 -38.7871397,3.06294 -6.20193,-2.84763 -10.19839,-4.18552 -10.19839,-3.41412 0,2.0724 4.23497,6.97104 8.19542,9.47971 5.59788,3.54589 21.3025,4.1409 32.5052197,1.23156 z m 1.40482,-42.78149 c 5.13855997,-1.42715 7.33199,-7.2657 4.66622997,-12.42071 -2.06813997,-3.99934 -11.34250967,-6.5929 -25.83341967,-7.22426 -10.31701,-0.44952 -12.58451,0.26955 -14.66315,4.64995 -2.75419,5.80401 0.32032,10.8975 7.90962,13.10377 8.64943,2.51446 22.33825,3.44169 27.9207197,1.89125 z M -112.29791,856.62441 c 8.19266,-0.99962 12.741794,-2.54465 15.441564,-5.24442 4.00105,-4.00105 2.57243,-9.57953 -3.208554,-12.52877 -2.67803,-1.36622 -3.76644,-1.46986 -10.74433,-1.02302 -16.09044,1.03037 -22.1313,2.61301 -25.76338,6.74973 -2.65049,3.01874 -2.82891,5.23896 -0.6442,8.01638 3.61013,4.58954 10.80169,5.75262 24.9189,4.0301 z"
       id="path99" /><path
       style="fill:#7a4427;fill-opacity:1;stroke-width:1.57179;stroke-dasharray:1.57179, 3.14358"
       d="m -91.712546,1020.8521 c -12.070644,-3.7691 -17.364424,-16.0929 -11.886594,-27.6719 2.29852,-4.85854 6.152534,-8.69894 10.749894,-10.71191 6.43963,-2.81961 32.36411,-3.72933 42.09931,-1.47731 6.12909,1.41783 11.17269,4.93124 13.80945,9.61977 2.05257,3.64975 2.2767,4.66885 2.2767,10.35245 0,5.5654 -0.26121,6.816 -2.22916,10.6727 -2.84793,5.5813 -8.20797,9.153 -13.73579,9.153 -4.11767,0 -6.53415,-1.8022 -10.36323,-7.7286 -3.99527,-6.1836 -9.38054,-7.6721 -14.15887,-3.9134 -1.05242,0.8278 -3.23024,3.2875 -4.83961,5.466 -4.20984,5.6987 -7.62741,7.5177 -11.7221,6.2392 z m 36.07129,-18.8475 c 7.0864,-1.7036 16.92918,-6.642 16.92918,-8.4938 0,-2.32047 -1.642,-2.40689 -7.93851,-0.4178 -15.84818,5.0064 -26.02769,5.2028 -43.33016,0.8358 -5.60539,-1.41474 -10.440044,-2.57445 -10.743664,-2.57713 -2.1787,-0.0192 2.300774,5.43153 6.025154,7.33153 2.96787,1.5141 10.10431,3.5305 15.87238,4.4847 5.08256,0.8409 17.42506,0.2216 23.18562,-1.1633 z"
       id="path100" /><path
       style="fill:#7a4427;fill-opacity:1;stroke-width:1.57179;stroke-dasharray:1.57179, 3.14358"
       d="m -2.7436063,1187.0497 c -24.7289797,-2.4843 -37.2566097,-15.3704 -40.3939197,-41.5497 -0.60868,-5.0792 -0.7139,-12.9694 -0.34466,-25.8472 l 0.53147,-18.5362 4.87952,-0.4003 c 26.70222,-2.1903 48.57804,-10.5252 67.46367,-25.7042 19.36457,-15.564 36.00208,-42.1139 42.26836,-67.4512 1.20356,-4.8665 2.53438,-9.4949 2.95737,-10.2853 1.39461,-2.6058 3.84442,-3.7206 8.176,-3.7206 h 4.14656 l 0.36965,78.1203 c 0.40845,86.3192 0.49789,84.3154 -4.18825,93.8357 -4.85657,9.8666 -16.08801,18.2282 -27.55048,20.511 -5.6935,1.1338 -49.5628803,1.907 -58.3152903,1.0277 z"
       id="path101" /><path
       style="fill:#7a4427;fill-opacity:1;stroke-width:0.135734;stroke-dasharray:0.135734, 0.271468"
       d="m 19.493694,849.17975 c -2.71785,-0.18035 -5.67324,-1.33897 -7.81822,-3.06502 -2.2102903,-1.7786 -4.0517303,-4.26795 -6.0460603,-8.17336 -0.94221,-1.8451 -1.51409,-3.09859 -2.71853,-5.95872 -1.47177,-3.49495 -2.19824003,-5.1469 -3.58507003,-8.15221 -4.37515997,-9.4811 -9.83310967,-20.03795 -12.99179967,-25.12893 -2.43764,-3.92883 -5.77167,-8.25298 -8.86611,-11.49911 l -0.98463,-1.03289 h 0.47792 0.47792 l 0.72307,0.81042 c 4.88111,5.47081 9.24579,12.02341 13.9189797,20.89626 1.48571,2.82087 3.90359,7.74841 5.77006,11.75911 2.78972997,5.99465 3.35005,7.2632 4.70641,10.65528 1.59108,3.9791 2.28624,5.58893 3.22066,7.45831 1.48497,2.9708 2.85058,4.96277 4.6246703,6.74588 2.13627,2.14714 4.5275,3.56026 7.13118,4.21424 0.80441,0.20205 1.93662,0.38762 2.36498,0.38762 0.14409,0 0.26198,0.0286 0.26198,0.0636 0,0.035 -0.0787,0.0584 -0.1748,0.0521 -0.0961,-0.006 -0.31781,-0.021 -0.49261,-0.0326 z"
       id="path102" /><path
       style="fill:#a99e1f;fill-opacity:1;stroke-width:0.135734;stroke-dasharray:0.135734, 0.271468"
       d="m -40.543956,851.11984 c -1.74208,-2.20318 -2.13189,-4.81918 -1.13969,-7.64851 0.63471,-1.8099 1.72106,-3.46079 2.82709,-4.29623 0.89362,-0.67499 2.55232,-1.23173 4.03588,-1.35465 l 0.41316,-0.0342 -0.47559,0.0917 c -2.06503,0.39815 -3.6392,1.25405 -4.88853,2.65797 -1.48018,1.66335 -2.23047,3.80142 -2.14536,6.11357 0.0622,1.68926 0.54768,3.17932 1.42362,4.3692 0.35038,0.47596 0.30986,0.55702 -0.0506,0.10118 z"
       id="path103" /><path
       style="fill:#a99e1f;fill-opacity:1;stroke-width:1.28006;stroke-dasharray:1.28006, 2.56012"
       d="m 61.820564,988.77537 c -2.15434,-0.25224 -4.88946,-0.86495 -6.07805,-1.36157 -3.32313,-1.3885 -6.80321,-4.89576 -8.30272,-8.36758 l -1.35707,-3.14204 -0.005,-59.45189 -0.005,-59.45188 1.62622,-3.32388 c 1.91641,-3.91701 5.39822,-7.09959 9.26588,-8.46957 1.59683,-0.56562 5.63753,-1.12432 9.50589,-1.31435 l 6.72844,-0.33054 -2.02103,4.12915 c -7.78541,15.90633 -9.26624,35.03395 -6.32945,81.75646 0.32121,5.11021 0.58497,14.8282 0.58614,21.59551 0.003,18.50578 1.03044,24.9026 5.41218,33.70271 l 2.31317,4.64565 -3.71175,-0.0788 c -2.04147,-0.0433 -5.4744,-0.28516 -7.62874,-0.53739 z"
       id="path104" /><path
       style="fill:#a99e1f;fill-opacity:1;stroke-width:1.28006;stroke-dasharray:1.28006, 2.56012"
       d="m 105.90127,906.32409 c -2.75072,-1.43427 -3.76921,-2.56475 -5.3819,-5.97369 -2.185996,-4.62084 -3.284676,-12.25515 -3.658536,-25.42188 -0.58041,-20.44129 -5.03348,-48.18213 -11.66292,-72.65526 -5.10755,-18.85496 -10.90064,-34.21839 -18.83833,-49.95972 -13.32382,-26.42263 -23.7376,-39.33525 -51.49847,-63.85578 -14.76954033,-13.0456 -14.41924033,-12.33594 -6.9300003,-14.03933 9.0002003,-2.04705 18.7283803,-0.67216 27.9277303,3.94707 18.06758,9.07218 40.19289,35.06426 55.07985,64.70596 19.022556,37.8762 30.227316,89.87007 30.475846,141.41832 0.0701,14.534 0.0553,14.71731 -1.42779,17.68344 -1.24884,2.49767 -1.94817,3.16659 -4.19607,4.01361 -3.41641,1.28731 -7.57311,1.345 -9.88941,0.13726 z"
       id="path105" /><path
       style="fill:#a99e1f;fill-opacity:1;stroke-width:1.28006;stroke-dasharray:1.28006, 2.56012"
       d="m -157.01603,987.03593 c -6.02052,-3.78175 -8.7822,-9.2956 -9.47854,-18.92446 -0.23842,-3.29691 -0.18972,-18.40276 0.10822,-33.56856 0.29795,-15.1658 0.37881,-34.8774 0.17969,-43.80355 l -0.36204,-16.22936 6.45584,-1.80484 6.45585,-1.80485 0.18737,2.36134 c 0.10306,1.29873 0.0533,2.49537 -0.11049,2.65919 -0.16382,0.16383 -1.29946,-0.46609 -2.52364,-1.39982 l -2.22577,-1.69768 0.30784,1.78701 c 0.16931,0.98285 1.00865,5.15885 1.86519,9.27999 1.86403,8.96857 3.18703,21.26683 3.75149,34.87297 0.42125,10.15411 -0.86394,70.03827 -1.50266,70.01741 -0.19182,-0.006 -1.59058,-0.79142 -3.10835,-1.74479 z"
       id="path106" /><g
       id="g115"
       transform="matrix(-0.31456082,0,0,0.31456082,10643.149,1202.3737)"
       style="display:inline"><path
         style="display:inline;fill:#7a4427;fill-opacity:1;stroke-width:8.34301;stroke-dasharray:8.34301, 16.6861"
         d="m 5195.6262,488.97379 -3.6998,664.96931 -19.7376,79.9318 -78.1788,120.9779 -45.296,28.9971 -265.8722,125.485 -5.7258,263.9332 -28.4431,66.0664 -76.6554,52.2406 -103.8717,9.39 -210.7588,-10.1933 -69.5249,-56.0947 -30.3543,-57.5153 53.028,-1433.71929 504.1561,-220.11321 z"
         id="path115" /><path
         style="fill:#000000"
         d="m 4645.3763,1901.7608 c 49.128,-7.5884 98.9525,-44.6462 120.9781,-89.9794 17.4699,-35.9565 20.2899,-61.7949 20.3233,-186.2104 l 0.03,-110.0562 14.0917,3.8909 c 31.4166,8.6745 157.4513,2.449 181.2555,-8.9532 40.783,-19.535 67.8967,-57.3073 73.0239,-101.7303 1.3212,-11.4471 4.1233,-21.939 6.2269,-23.3152 56.379,-36.8851 119.717,-142.4125 133.0856,-221.7343 l 5.008,-29.7148 57.0146,-1.9535 c 56.5164,-1.9364 57.1436,-2.0579 71.7712,-13.9005 33.3818,-27.0261 30.5766,-5.1146 33.3947,-260.8435 1.3777,-125.014 3.7237,-234.3892 5.2133,-243.056 2.1784,-12.674 -0.4144,-25.3565 -13.2489,-64.8068 -19.2744,-59.2448 -19.443,-51.853 1.4616,-64.1038 43.263,-25.3539 58.1009,-64.4028 43.1118,-113.4576 -7.1974,-23.5548 -15.5518,-33.298 -70.2982,-81.9836 -51.6123,-45.8985 -49.0427,-40.3937 -30.0121,-64.2951 37.1199,-46.6207 31.8204,-81.9798 -20.3755,-135.947896 -175.6338,-181.5964 -430.6374,-262.873304 -635.137,-202.435904 -15.6853,4.6356 -19.6094,4.3433 -39.0694,-2.9098 -34.8607,-12.9932 -99.3267,-11.5457 -132.9806,2.986 -13.9674,6.0311 -46.3985,18.663404 -72.0693,28.071904 -86.4306,31.6774 -137.558,71.6439 -214.4904,167.6682 -80.7466,100.784996 -92.4246,142.948596 -49.5778,179.001796 14.8377,12.4851 16.7811,5.9342 -17.7736,59.9124 -71.2375,111.2807 -92.4205,170.0588 -76.3958,211.9812 l 8.0775,21.1315 -11.4167,13.0029 c -19.5511,22.2675 -19.8775,27.0853 -18.7015,276.04002 l 1.0955,231.91498 11.7209,18.9208 c 18.4596,29.7992 36.0981,37.1088 89.5462,37.1088 h 43.3875 l 7.3488,25.6606 c 10.4239,36.3978 45.5708,105.8844 64.3267,127.1761 l 15.8978,18.0471 1.0944,235.9043 1.0944,235.9042 9.2082,22.8309 c 17.5939,43.622 59.1306,82.9929 104.0931,98.6652 21.8686,7.6226 237.4733,11.9306 278.6656,5.568 z m -273.0921,-15.5042 c -34.7315,-10.8097 -64.5436,-32.6547 -82.5194,-60.4668 -27.6982,-42.8544 -26.5881,-27.0709 -26.5881,-378.0321 v -315.7533 h 23.3326 23.3325 l 6.2753,22.4649 c 67.5179,241.7058 207.6093,375.5491 415.1342,396.6191 l 44.1712,4.4847 -1.1948,109.7806 -1.1948,109.7805 -14.7383,29.8049 c -20.6145,41.6879 -52.7904,68.9273 -98.5631,83.4413 -28.4407,9.0182 -257.0755,7.329 -287.4473,-2.1238 z m 281.5869,-464.1039 c -129.4447,-42.7738 -242.9458,-135.194 -313.8964,-255.5951 -20.6146,-34.9825 -20.7818,-34.5532 13.4586,-34.5532 31.643,0 44.1169,-4.2018 61.6034,-20.7511 24.731,-23.4056 23.9525,-14.4926 23.9525,-274.22313 0,-260.70487 0.7306,-252.39797 -24.4918,-278.45817 l -12.3749,-12.786 26.2472,-26.2473 c 24.98,-24.9799 26.2473,-25.7242 26.2473,-15.4138 0,39.8831 48.6459,76.9186 86.2384,65.6556 22.0026,-6.5921 31.589,-19.2886 56.4123,-74.7136 39.364,-87.8911 89.2495,-169.3865 113.3537,-185.1801 5.141,-3.3686 30.9565,-13.2011 57.3676,-21.8501 26.4112,-8.649 59.6023,-20.2493 73.758,-25.7785 l 25.7378,-10.0531 28.9594,14.573 c 85.419,42.9846 115.3036,76.1012 143.9407,159.5077 30.8161,89.7528 60.3781,109.5458 126.2307,84.5165 11.3043,-4.2965 21.8719,-7.8128 23.4836,-7.8139 1.6116,0 2.9302,42.9224 2.9302,95.3854 v 95.3874 l -19.0557,13.9882 c -64.793,47.5624 -113.148,52.8929 -188.0124,20.7257 -13.5343,-5.8153 -0.3142,9.9997 15.6278,18.6954 44.4215,24.2299 115.8046,14.1561 168.9844,-23.8475 10.2118,-7.2977 19.442,-13.2685 20.5114,-13.2685 3.7347,0 1.8467,392.9418 -2.0515,426.9645 -8.9258,77.9045 -44.1192,151.2585 -99.5381,207.4679 l -31.2555,31.7015 -1.9535,-126.9757 -1.9534,-126.9757 -10.6675,-18.1462 c -27.7963,-47.2836 -50.1364,-55.6452 -153.2866,-57.3728 -117.5588,-1.9689 -151.7814,10.4614 -178.5735,64.8612 -10.0445,20.3948 -16.08,251.0596 -7.9253,302.8889 l 3.564,22.6518 -12.1354,-2.6422 c -6.6745,-1.4533 -25.3213,-6.9995 -41.4375,-12.325 z m 304.7416,-424.13309 c 19.8588,-10.0447 20.7617,-19.6284 7.9332,-84.20378 -13.9089,-70.01338 -57.711,-243.25363 -62.8133,-248.43073 -6.7615,-6.8607 -8.6546,1.4053 -4.1583,18.1572 29.7439,110.81679 66.8523,271.37201 66.8523,289.24641 0,14.7465 -15.2704,18.5657 -74.2319,18.5657 -53.8848,0 -71.8804,3.3447 -49.8135,9.25839 16.9231,4.5352 106.0706,2.5463 116.2315,-2.59319 z M 4725.1888,772.2309 c 19.2416,-4.5349 49.9158,-20.2314 58.8427,-30.1107 12.2935,-13.6051 0.457,-13.1387 -20.2528,0.798 -52.8608,35.57267 -123.4997,26.9948 -198.7916,-24.1398 -24.8691,-16.8899 -32.4982,-13.1795 -10.7431,5.2249 46.3683,39.2266 120.4528,60.12763 170.9448,48.2276 z m 409.2065,-177.3995 c 11.523,-12.2656 11.9762,-30.8448 1.0196,-41.8014 -8.6012,-8.6012 -120.2332,-28.7395 -134.7006,-24.2999 -9.7512,2.9923 -22.5668,20.7198 -22.5668,31.2161 0,21.4872 13.3733,28.3687 71.516,36.7998 69.1471,10.0269 73.6081,9.9261 84.7318,-1.9146 z m -427.973,1.9344 c 55.6187,-7.6479 64.6571,-12.6503 64.6571,-35.7856 0,-30.4915 -18.1514,-34.7204 -99.4031,-23.1591 -56.097,7.982 -64.6885,12.9221 -64.6885,37.1956 0,30.057 15.0598,33.351 99.4345,21.7491 z m 212.1443,636.4762 c -5.9093,-6.3256 -10.7441,-15.1053 -10.7441,-19.5103 0,-16.6214 -7.0894,-23.1231 -25.2131,-23.1231 -22.2268,0 -29.4842,3.0188 -29.4842,12.2643 0,38.3008 -39.9015,55.6401 -78.3335,34.0401 -52.112,-29.2885 -48.6026,-119.7024 5.6015,-144.3175 18.7795,-8.5281 171.8483,-11.1656 192.6162,-3.3189 53.5367,20.2275 65.2582,107.1938 19.1843,142.336 -26.6567,20.3321 -55.5581,20.9717 -73.6271,1.6294 z m 8.2793,-64.2818 c 28.0751,-6.0918 74.7432,-26.5987 74.7432,-32.8436 0,-6.3757 -7.2679,-4.954 -28.9808,5.6691 -56.627,27.705 -129.3999,27.0546 -185.9097,-1.6617 -22.5489,-11.4585 -36.8272,-10.257 -20.8941,1.7582 34.7054,26.1715 108.238,38.5355 161.0414,27.078 z m -606.7764,-54.231 c 4.1171,-3.0104 9.2631,-4.4685 11.4357,-3.2402 2.1725,1.2284 2.6547,0.8028 1.0716,-0.9458 -1.5832,-1.7486 1.054,-9.5025 5.8604,-17.2309 l 8.7388,-14.0516 1.1948,-234.41664 c 1.3096,-256.93806 1.5235,-254.20056 -21.8855,-280.11156 l -14.3711,-15.9071 35.3321,1.6893 c 39.8507,1.9053 59.1874,10.4937 72.3961,32.1548 11.3569,18.6244 11.5215,481.206 0.1788,502.5125 -13.0573,24.5272 -32.7741,34.5026 -70.8917,35.8667 -38.0228,1.3606 -39.21,1.1024 -29.06,-6.3195 z m 883.7706,-205.66447 1.0434,-211.22053 10.355,-8.907 c 7.2173,-6.2081 9.5401,-11.0304 7.6657,-15.9148 -2.5847,-6.7357 -2.9895,-6.7361 -10.4216,-0.01 -7.5551,6.8373 -7.7324,6.7055 -7.7324,-5.7466 0,-8.59 1.592,-12.1337 4.8837,-10.871 2.686,1.0303 15.0657,4.1517 27.5105,6.9363 l 22.6269,5.0631 -1.1387,203.78821 -1.1387,203.78829 -11.1966,14.6753 c -10.7692,14.115 -31.4546,29.5919 -39.5936,29.624 -2.5695,0.01 -3.5498,-72.293 -2.8636,-211.20513 z M 4142.1136,792.92815 c -14.2304,-11.52312 -14.0605,-165.98675 0.291,-264.54655 23.8687,-163.9191 66.798,-301.9299 126.3895,-406.3222 34.4162,-60.290196 94.6951,-141.569196 103.514,-139.576396 2.6129,0.5904 3.7502,-0.5454 2.5273,-2.5242 -3.5659,-5.7697 64.2896,-67.4203 83.6147,-75.9687 40.5273,-17.927204 86.7847,-23.141304 123.4324,-13.913304 23.0345,5.8002 24.0757,8.8728 6.5716,19.393004 -202.1215,121.4778 -359.9463,476.407796 -364.6779,820.119396 -0.9028,65.58196 -3.7217,69.60935 -49.0496,70.07736 -17.494,0.18062 -26.3205,-1.6431 -32.613,-6.73841 z"
         id="path107" /><path
         style="fill:#7a4427;fill-opacity:1;stroke-width:4.5925;stroke-dasharray:4.5925, 9.185"
         d="m -811.11912,363.59878 c -0.67758,-37.31848 -1.11325,-41.19925 -5.2462,-46.73147 -6.65836,-8.91263 -19.30454,-11.91509 -46.03226,-10.929 -24.92979,0.91977 -30.48899,2.89495 -36.66754,13.02797 -3.62684,5.94816 -4.17917,10.95146 -4.18615,37.92044 l -0.008,31.06816 -7.66458,-7.41137 c -4.21551,-4.07626 -11.2319,-14.61564 -15.59197,-23.4208 l -7.9274,-16.00943 -0.69254,-58.84726 -0.69255,-58.84726 8.90445,4.5427 c 12.3909,6.32137 27.16784,7.74557 37.13881,3.57943 8.72009,-3.64349 11.4298,-9.25652 3.19307,-6.61427 -17.81211,5.71394 -28.04038,4.69832 -41.69132,-4.13973 l -7.18199,-4.64984 -0.0266,-22.96375 -0.0266,-22.96375 11.73199,1.21085 c 10.47809,1.08143 12.21301,0.66258 16.23261,-3.91897 2.47534,-2.8214 7.79907,-12.7645 11.83051,-22.09578 8.54968,-19.7893 11.6769,-23.51953 28.0226,-33.42606 l 12.14317,-7.35953 18.20877,5.92994 c 10.47164,3.41023 21.18954,8.54708 25.22378,12.0892 3.96856,3.48444 12.45443,16.71815 19.54025,30.473 15.51235,30.11224 16.97404,31.8409 26.92353,31.8409 8.74898,0 17.2465,-6.93182 17.2465,-14.06875 0,-3.63728 0.6699,-3.44385 5.78372,1.66997 5.64833,5.64833 5.69112,5.88602 1.82805,10.15467 -3.51083,3.87943 -4.07282,9.64584 -4.99758,51.27857 -1.3633,61.37643 0.37832,83.1906 7.18532,89.9976 3.66755,3.66755 7.48617,5.0593 13.88144,5.0593 h 8.82211 l -5.44524,9.14013 c -17.12599,28.74698 -54.41909,57.72149 -83.31022,64.72711 l -5.7129,1.38527 z m -35.31066,-68.70235 c 1.44528,-2.3385 -9.09152,-4.56308 -21.61317,-4.56308 -11.95748,0 -11.94936,0.64574 -0.57571,-45.82151 7.81536,-31.92977 9.11845,-41.66681 5.02891,-37.57727 -2.46298,2.46298 -18.16338,69.03138 -18.16338,77.01122 0,5.65922 1.20498,9.02629 3.76358,10.51653 4.62377,2.6931 29.94835,3.04144 31.55977,0.43411 z m 60.03635,-62.37313 c 11.24618,-5.12127 17.98387,-10.21511 16.05844,-12.14054 -0.81537,-0.81537 -7.50093,1.52495 -14.85678,5.20071 -15.32839,7.65968 -27.81186,8.63124 -39.47003,3.07184 -7.58365,-3.61639 -12.56805,-2.61992 -8.29068,1.65745 8.67545,8.67545 30.12584,9.69388 46.55905,2.21054 z m -99.5539,-43.32625 c 4.94461,-2.64628 5.54184,-11.20131 1.04265,-14.93531 -3.23191,-2.68224 -12.22279,-1.93952 -30.72068,2.5378 -7.96511,1.92792 -9.14012,2.96285 -9.14012,8.05043 0,3.21096 0.72583,6.59115 1.61296,7.51153 2.1411,2.22136 31.86569,-0.30684 37.20519,-3.16445 z m 98.41446,-3.63251 c 0.58015,-6.00249 -0.12983,-7.13114 -5.37654,-8.54708 -3.32472,-0.89725 -12.8194,-1.65629 -21.09928,-1.68676 -14.21144,-0.0523 -15.09462,0.22943 -15.77405,5.03155 -0.39586,2.79781 0.24031,6.04698 1.41371,7.22038 3.40211,3.40211 15.53891,5.65548 28.33936,5.2616 11.65896,-0.35876 11.83797,-0.46303 12.4968,-7.27969 z"
         id="path108"
         transform="matrix(-3.9069439,0,0,3.9069439,1530.8995,-150.74577)" /><path
         style="fill:#7a4427;fill-opacity:1;stroke-width:0.708392;stroke-dasharray:0.708392, 1.41678"
         d="m -789.35716,522.94032 c -9.89167,-0.5721 -12.55013,-1.16362 -18.33231,-4.07904 -8.84896,-4.46171 -14.02254,-10.02392 -19.50457,-20.96972 l -2.43724,-4.86635 -0.34763,-27.95605 c -0.1912,-15.37583 -0.29687,-28.00681 -0.23483,-28.06885 0.062,-0.062 3.08505,-0.41587 6.71779,-0.78628 8.07204,-0.82308 12.35367,-1.43043 17.55217,-2.48979 31.48623,-6.41635 56.36031,-24.35945 73.84003,-53.26506 3.37873,-5.58729 9.23037,-17.45173 11.92509,-24.17862 2.33406,-5.82656 5.91521,-16.52899 7.79784,-23.3042 l 1.26745,-4.56132 h 5.75982 5.75982 l -0.12755,77.54244 c -0.13281,80.7329 -0.15468,81.98714 -1.54996,88.89576 -0.75743,3.7503 -1.63885,5.72031 -4.50262,10.06352 -3.94757,5.9869 -8.6046,10.22372 -14.69556,13.36958 -5.59097,2.88762 -8.00972,3.47108 -17.46923,4.21401 -4.28886,0.33684 -46.89782,0.70143 -51.41851,0.43997 z"
         id="path109"
         transform="matrix(-3.9069439,0,0,3.9069439,1530.8995,-150.74577)" /><path
         style="fill:#aa9d26;fill-opacity:1;stroke-width:0.708392;stroke-dasharray:0.708392, 1.41678"
         d="m -725.07772,325.07645 c -6.45547,-0.83971 -10.26566,-2.87917 -13.05629,-6.98855 -0.9492,-1.39775 -1.42459,-2.52135 -1.63576,-3.86614 -1.17677,-7.49413 -1.78016,-35.85253 -1.54377,-72.55473 0.23534,-36.53782 0.81314,-51.06895 2.14348,-53.90651 0.78472,-1.67379 3.65871,-4.43422 5.68642,-5.46174 3.42695,-1.73657 7.72372,-2.42723 18.32823,-2.94609 l 2.87929,-0.14088 -2.93513,3.27282 c -1.61433,1.80004 -3.3173,4.08063 -3.78438,5.06796 -2.35561,4.97935 -2.62883,14.29375 -2.28313,77.8333 l 0.26983,49.59399 1.8113,2.94209 c 1.36936,2.22423 1.81131,3.25316 1.81131,4.21698 0,1.1576 0.0689,1.25762 0.74863,1.08701 0.78766,-0.19769 3.74484,1.29142 3.74484,1.88574 0,0.38231 -9.17893,0.35575 -12.18487,-0.0352 z"
         id="path110"
         transform="matrix(-3.9069439,0,0,3.9069439,1530.8995,-150.74577)" /><path
         style="fill:#ffffff;fill-opacity:1;stroke-width:0.708392;stroke-dasharray:0.708392, 1.41678"
         d="m -682.17694,242.8151 c -3.02175,-0.47482 -4.19826,-1.21951 -5.24456,-3.31964 -1.08788,-2.18356 -1.58585,-5.7639 -1.58847,-11.42076 -0.005,-9.75655 -1.03028,-24.95434 -2.49708,-36.99686 -4.1276,-33.88783 -14.4206,-69.67366 -28.46587,-98.967733 l -2.49137,-5.196227 h 15.0539 15.0539 l 0.70859,1.575729 c 8.91967,19.835031 16.81812,47.707251 21.53996,76.010671 3.14356,18.84298 4.11712,30.88943 4.13183,51.12576 0.009,12.65539 -0.24892,17.50054 -1.18407,22.22607 -0.83854,4.23732 -2.14588,5.0115 -8.72714,5.16799 -2.38144,0.0566 -5.21177,-0.0356 -6.28962,-0.205 z"
         id="path111"
         transform="matrix(-3.9069439,0,0,3.9069439,1530.8995,-150.74577)" /><path
         style="fill:#aa9d26;fill-opacity:1;stroke-width:0.708392;stroke-dasharray:0.708392, 1.41678"
         d="m -943.57775,323.94372 c -2.95696,-1.78058 -5.06818,-3.70109 -7.69277,-6.99788 l -2.40564,-3.02174 -0.19646,-46.08051 c -0.10805,-25.34427 -0.27971,-48.77545 -0.38146,-52.06928 l -0.185,-5.98878 2.18283,-0.43388 c 1.20057,-0.23863 4.15898,-0.92344 6.57425,-1.5218 3.96256,-0.98168 4.43191,-1.03669 4.80608,-0.56325 0.47271,0.59811 0.57141,4.37865 0.11432,4.37865 -0.16519,0 -0.92571,-0.52248 -1.69005,-1.16106 -0.76434,-0.63859 -1.53248,-1.16107 -1.70698,-1.16107 -0.1745,0 -0.53259,0.51534 -0.79576,1.1452 -0.68241,1.63324 -0.2149,2.63193 2.33682,4.99185 l 2.15216,1.9904 0.085,50.92091 c 0.0467,28.00651 -0.0403,52.22712 -0.19357,53.82358 -0.18324,1.90934 -0.41697,2.90266 -0.68298,2.90266 -0.22242,0 -1.26678,-0.5193 -2.3208,-1.154 z"
         id="path112"
         transform="matrix(-3.9069439,0,0,3.9069439,1530.8995,-150.74577)" /><path
         style="fill:#aa9d26;fill-opacity:1;stroke-width:1.36434;stroke-dasharray:1.36434, 2.72869"
         d="m -726.43773,79.106685 c -14.51102,-27.078305 -33.91247,-49.698257 -53.59635,-62.487433 -2.85072,-1.852196 -5.18313,-3.606777 -5.18313,-3.899068 0,-0.89081 6.42684,-2.521713 11.50034,-2.9183775 5.6762,-0.4437857 12.07127,0.4534945 19.13426,2.6846905 3.85765,1.218633 6.41137,2.583555 10.26102,5.48435 6.33307,4.772113 15.96714,14.129327 15.96714,15.508289 0,0.562025 0.39465,1.021864 0.87699,1.021864 3.63546,0 25.52865,31.893114 32.70871,47.648737 l 2.16086,4.741671 -14.83847,-0.0176 -14.83847,-0.0176 z"
         id="path113"
         transform="matrix(-3.9069439,0,0,3.9069439,1530.8995,-150.74577)" /><path
         style="fill:#ffffff;fill-opacity:1;stroke-width:0.868222;stroke-dasharray:0.868222, 1.73644"
         d="m 370.80013,281.99276 c 0,-0.15061 0.2758,-0.80716 0.61288,-1.459 0.51844,-1.00256 0.62096,-4.14731 0.66537,-20.41041 0.0553,-20.23773 0.0221,-20.65291 -1.8079,-22.60625 l -0.88207,-0.94154 2.23054,0.26533 c 3.34458,0.39787 4.82669,0.9654 5.59921,2.14406 0.62071,0.94704 0.71279,2.7589 0.84022,16.53181 0.0787,8.50752 0.0141,17.36176 -0.14353,19.6761 -0.25886,3.80012 -0.39416,4.32824 -1.39619,5.44971 -0.92926,1.04002 -1.48402,1.27286 -3.41404,1.43291 -1.26747,0.10511 -2.30449,0.0679 -2.30449,-0.0827 z"
         id="path7"
         transform="matrix(12.420313,0,0,12.420313,-271.67075,-2388.4325)" /><path
         style="fill:#ffffff;fill-opacity:1;stroke-width:0.868222;stroke-dasharray:0.868222, 1.73644"
         d="m 363.48171,207.14045 c 0,-0.65799 2.77926,-5.53531 5.31558,-9.32829 3.2062,-4.79478 8.90116,-10.8531 11.76074,-12.51112 2.34978,-1.36243 6.1493,-2.14055 8.63329,-1.76805 1.05535,0.15826 2.01086,0.43668 2.12337,0.61872 0.1125,0.18204 -0.76919,0.97751 -1.95932,1.76771 -4.8925,3.24844 -11.67428,11.27704 -15.44048,18.27922 l -1.69173,3.14528 -4.37072,0.006 c -2.4039,0.003 -4.37073,-0.091 -4.37073,-0.20918 z"
         id="path8"
         transform="matrix(12.420313,0,0,12.420313,-271.67075,-2388.4325)" /><path
         style="fill:#ffffff;fill-opacity:1;stroke-width:0.868222;stroke-dasharray:0.868222, 1.73644"
         d="m 441.13832,265.43501 c 0,-16.47799 0.0144,-16.77478 0.85575,-17.67039 0.89,-0.94736 0.7034,-2.00151 -0.28701,-1.62146 -0.31281,0.12004 -0.56874,0.041 -0.56874,-0.17557 0,-0.50576 0.63785,-0.49441 2.58408,0.046 l 1.56764,0.43529 -0.29005,16.33383 -0.29004,16.33384 -1.0743,1.15308 c -0.59087,0.63419 -1.39449,1.32673 -1.78582,1.53898 -0.67237,0.36466 -0.71151,-0.53622 -0.71151,-16.3736 z"
         id="path9"
         transform="matrix(12.420313,0,0,12.420313,-271.67075,-2388.4325)" /><path
         style="fill:#6c63ff;fill-opacity:1;stroke-width:1.01402;stroke-dasharray:1.01402, 2.02804"
         d="m 355.29531,255.59068 c -0.18768,-0.45705 -0.31085,-4.67733 -0.27371,-9.37839 0.0935,-11.82817 2.11383,-22.90685 6.18514,-33.91597 l 1.76944,-4.78471 h 4.41762 c 2.42969,0 4.41762,0.0879 4.41762,0.19535 0,0.10744 -0.71463,1.87034 -1.58807,3.91755 -4.89796,11.48011 -7.61834,23.42876 -8.30537,36.47951 -0.23604,4.48372 -0.57256,7.05633 -0.98861,7.55764 -0.91989,1.1084 -5.17176,1.05483 -5.63406,-0.071 z"
         id="path10"
         transform="matrix(12.420313,0,0,12.420313,-271.67075,-2388.4325)" /><path
         style="fill:#6c63ff;fill-opacity:1;stroke-width:1.01402;stroke-dasharray:1.01402, 2.02804"
         d="m 371.6871,280.0457 c 0.19896,-1.10997 0.36175,-10.68202 0.36175,-21.27122 0,-17.63214 -0.0709,-19.36122 -0.84194,-20.53748 -0.95121,-1.45106 -0.84551,-1.48349 2.49782,-0.76648 4.16529,0.8933 4.02112,0.11517 4.0325,21.76432 0.0112,21.30642 5.5e-4,21.37568 -3.43358,22.32939 -2.9045,0.80662 -3.0212,0.73889 -2.61655,-1.51853 z"
         id="path11"
         transform="matrix(12.420313,0,0,12.420313,-271.67075,-2388.4325)" /><path
         style="fill:#6c63ff;fill-opacity:1;stroke-width:1.01402;stroke-dasharray:1.01402, 2.02804"
         d="m 365.17552,204.30634 c 5.65065,-10.10196 13.22553,-18.34179 18.23732,-19.83826 2.58152,-0.77081 6.71599,-0.93527 7.11901,-0.28317 0.14142,0.22882 -0.54045,0.96985 -1.51526,1.64673 -4.54603,3.15662 -11.76452,11.77359 -15.39521,18.37781 l -1.55432,2.82731 h -4.20941 -4.20942 z"
         id="path12"
         transform="matrix(12.420313,0,0,12.420313,-271.67075,-2388.4325)" /><path
         style="fill:#6c63ff;fill-opacity:1;stroke-width:0.579971;stroke-dasharray:0.579971, 1.15994"
         d="m 441.47162,281.03807 c -0.0846,-0.33939 -0.1182,-7.76989 -0.0746,-16.51222 l 0.0793,-15.89514 0.61108,-0.77663 c 0.3361,-0.42714 0.61109,-1.01818 0.61109,-1.31341 0,-0.4725 0.12198,-0.51438 1.01848,-0.34963 0.56016,0.10293 1.11898,0.28426 1.24181,0.40294 0.12284,0.11868 0.0832,7.47276 -0.0881,16.34241 l -0.31147,16.12663 -0.99824,1.03998 c -1.43113,1.49096 -1.89856,1.70016 -2.08935,0.93507 z"
         id="path13"
         transform="matrix(12.420313,0,0,12.420313,-271.67075,-2388.4325)" /><path
         style="fill:#6c63ff;fill-opacity:1;stroke-width:0.14339;stroke-dasharray:0.14339, 0.28678"
         d="m 441.13109,282.20627 c -0.13153,-0.42326 -0.17367,-5.54978 -0.15594,-18.97138 l 0.0194,-14.65712 0.36931,-0.32676 c 0.20313,-0.17972 0.3781,-0.31857 0.38883,-0.30856 0.0107,0.01 -0.0429,0.12393 -0.11911,0.25316 -0.19496,0.33044 -0.3238,1.08276 -0.40871,2.38667 -0.10785,1.6561 -0.16076,21.80684 -0.069,26.26894 0.0895,4.34927 0.15326,4.97038 0.5159,5.02245 0.28016,0.0402 1.37254,-0.89061 2.53039,-2.15617 l 0.54146,-0.59185 0.21501,-11.69624 0.21501,-11.69624 -0.0254,10.40794 c -0.014,5.72437 -0.0401,10.94598 -0.0581,11.60358 l -0.0327,1.19564 -0.5496,0.6845 c -0.99541,1.23975 -1.9715,2.10412 -2.92314,2.5886 -0.35392,0.18018 -0.39562,0.17952 -0.45364,-0.007 z"
         id="path14"
         transform="matrix(12.420313,0,0,12.420313,-271.67075,-2388.4325)" /><path
         style="fill:#6c63ff;fill-opacity:1;stroke-width:0.14339;stroke-dasharray:0.14339, 0.28678"
         d="m 441.5836,281.23562 c -0.11179,-0.17057 -0.12045,-0.63242 -0.14199,-7.57093 -0.0126,-4.06411 -0.001,-11.35388 0.025,-16.19949 l 0.048,-8.81021 0.40364,-0.52336 c 0.45232,-0.58648 0.78845,-1.23366 0.78853,-1.51822 1e-4,-0.34533 0.10551,-0.44894 0.45567,-0.44784 0.34797,0.001 1.03396,0.1458 1.46778,0.30963 0.22166,0.0837 0.28654,0.14646 0.31895,0.30851 0.0622,0.31096 0.0477,6.23866 -0.0267,10.93033 -0.0982,6.19469 -0.32563,18.28562 -0.37474,19.92463 l -0.0427,1.42536 -0.83507,0.87109 c -0.91251,0.95189 -1.55922,1.48216 -1.80762,1.48216 -0.0994,0 -0.20458,-0.0685 -0.27873,-0.18166 z"
         id="path15"
         transform="matrix(12.420313,0,0,12.420313,-271.67075,-2388.4325)" /><path
         style="fill:#6c63ff;fill-opacity:1;stroke-width:0.14339;stroke-dasharray:0.14339, 0.28678"
         d="m 441.029,246.18516 c 10e-4,-0.65381 0.0443,-0.81876 0.22534,-0.86193 0.0787,-0.0187 0.59631,0.0741 1.15028,0.20626 0.55397,0.13219 1.43781,0.33454 1.96408,0.44967 0.781,0.17085 0.95686,0.23063 0.95686,0.32531 0,0.10619 -0.0497,0.10207 -0.58755,-0.0487 -1.45773,-0.40869 -2.42262,-0.63477 -2.87079,-0.67266 -0.43654,-0.0369 -0.49961,-0.0266 -0.62861,0.10237 -0.26013,0.26013 -0.14688,0.54627 0.2162,0.54627 0.18483,0 0.19112,0.008 0.0918,0.11751 -0.0587,0.0646 -0.1993,0.17209 -0.31258,0.23881 l -0.20595,0.12131 z"
         id="path16"
         transform="matrix(12.420313,0,0,12.420313,-271.67075,-2388.4325)" /><path
         style="fill:#6c63ff;fill-opacity:1;stroke-width:0.14339;stroke-dasharray:0.14339, 0.28678"
         d="m 369.62556,282.43841 c -0.18593,-0.046 -0.18804,-0.0511 -0.0659,-0.1613 0.3426,-0.30916 1.23165,-0.52347 1.23165,-0.2969 0,0.13704 0.21881,0.17377 1.0408,0.17473 1.46759,0.002 2.83396,-0.19288 3.50205,-0.49874 0.75867,-0.34733 1.8504,-1.61529 2.10946,-2.44996 0.5633,-1.81497 0.70126,-6.1316 0.64289,-20.11567 -0.0519,-12.44142 -0.15069,-16.92789 -0.41173,-18.70544 -0.14433,-0.98283 -0.31209,-1.36043 -0.83401,-1.87722 -0.86993,-0.86138 -2.02748,-1.26173 -4.74007,-1.6394 -1.35892,-0.1892 -0.95729,-0.2335 0.62303,-0.0687 1.84256,0.19213 2.89633,0.51459 3.69837,1.13174 0.4789,0.36851 0.98127,0.91665 1.15851,1.26407 0.40048,0.78501 0.55038,3.74931 0.67156,13.2809 0.11169,8.7844 0.0204,19.05198 -0.20894,23.5018 -0.13833,2.68388 -0.24869,3.39506 -0.62355,4.01815 -0.75017,1.24692 -1.98076,2.00502 -3.77458,2.32532 -0.64894,0.11587 -3.66821,0.20349 -4.0195,0.11665 z"
         id="path17"
         transform="matrix(12.420313,0,0,12.420313,-271.67075,-2388.4325)" /><path
         style="fill:#6c63ff;fill-opacity:1;stroke-width:0.0857099;stroke-dasharray:0.0857099, 0.17142"
         d="m 365.84901,207.3058 c -1.10231,-0.0269 -2.13387,-0.0927 -2.26967,-0.14482 -0.0892,-0.0342 -0.0711,-0.14795 0.0826,-0.51908 0.60394,-1.45894 2.70895,-5.08626 4.84274,-8.34491 2.02274,-3.08906 4.98507,-6.64683 7.98725,-9.59275 1.90033,-1.86472 3.33047,-3.00876 4.53859,-3.63065 l 0.47125,-0.24258 0.43184,8.2e-4 0.43184,8.2e-4 -0.36123,0.1737 c -2.52558,1.21443 -5.78386,4.06112 -9.01032,7.87214 -2.34336,2.76792 -4.75961,6.1877 -6.79194,9.61282 -0.73217,1.23393 -2.56043,4.48221 -2.56043,4.54912 0,0.0148 1.90046,0.0223 4.22325,0.0167 l 4.22325,-0.0102 0.79389,-1.44493 c 1.06607,-1.94031 1.43118,-2.57616 2.05121,-3.5722 3.74688,-6.01912 9.61898,-12.84667 13.59335,-15.80512 0.29802,-0.22184 0.67693,-0.50424 0.84202,-0.62755 0.16509,-0.12331 0.43003,-0.34701 0.58876,-0.49712 l 0.28858,-0.27293 0.25258,0.012 0.25258,0.012 -0.35969,0.2854 c -0.19783,0.15696 -0.66614,0.49792 -1.04069,0.75769 -1.12952,0.78337 -1.94649,1.42562 -2.91506,2.29163 -3.38149,3.02343 -6.99569,7.28066 -9.94693,11.71667 -1.23371,1.85437 -1.80663,2.82647 -3.29021,5.58263 l -0.97415,1.80976 -1.4482,0.0265 c -1.66819,0.0306 -3.24024,0.0256 -4.92701,-0.0156 z"
         id="path18"
         transform="matrix(12.420313,0,0,12.420313,-271.67075,-2388.4325)" /><path
         style="fill:#6c63ff;fill-opacity:1;stroke-width:0.0857099;stroke-dasharray:0.0857099, 0.17142"
         d="m 363.13447,207.25775 c 0.83302,-1.8652 1.37015,-2.92543 2.31161,-4.56283 1.531,-2.66272 3.67268,-5.93055 5.4734,-8.35143 1.0453,-1.4053 1.71832,-2.21368 2.34432,-2.81585 0.37168,-0.35752 0.50061,-0.44593 0.71883,-0.4929 0.15676,-0.0337 0.22744,-0.11495 0.28956,-0.33272 0.0768,-0.26914 0.4647,-0.7215 1.52564,-1.77899 1.79709,-1.79126 3.54335,-3.24158 4.78331,-3.97269 0.17792,-0.1049 0.23977,-0.1192 0.51167,-0.11831 l 0.3093,0.001 -0.48164,0.25069 c -0.26491,0.13787 -0.68033,0.38576 -0.92316,0.55086 -2.85161,1.93882 -7.73783,7.16623 -10.8042,11.55862 -1.67043,2.39279 -4.50914,7.12747 -5.3423,8.91042 -0.37689,0.80652 -0.44065,1.05723 -0.2792,1.09776 0.44922,0.11274 3.10456,0.17485 6.57234,0.15371 l 2.10748,-0.0128 0.93382,-1.73845 c 1.46676,-2.7306 2.04505,-3.7145 3.28023,-5.58093 3.30385,-4.99234 7.51876,-9.8235 11.15787,-12.78925 0.49554,-0.40385 1.0596,-0.8223 1.80617,-1.33993 0.37528,-0.26019 0.84873,-0.60671 1.05211,-0.77003 0.36434,-0.29259 0.37284,-0.29677 0.57798,-0.28477 l 0.20821,0.0122 -0.77867,0.51831 c -1.32589,0.88255 -2.28092,1.59327 -3.41511,2.54146 -4.17386,3.48941 -8.16992,8.26624 -11.5593,13.81785 -0.70462,1.15412 -1.32142,2.24587 -2.32183,4.10965 l -0.86413,1.60988 -4.64425,0.0102 -4.64425,0.0102 z"
         id="path19"
         transform="matrix(12.420313,0,0,12.420313,-271.67075,-2388.4325)" /><path
         style="fill:#6c63ff;fill-opacity:1;stroke-width:0.0857099;stroke-dasharray:0.0857099, 0.17142"
         d="m 363.76189,232.88174 c 0,-0.0221 0.10916,-0.57688 0.24257,-1.23292 1.16652,-5.73596 2.81183,-11.34521 4.91386,-16.75256 0.48828,-1.25606 0.75252,-1.90239 1.62184,-3.96707 0.67686,-1.60757 1.22523,-2.96601 1.26931,-3.14439 0.0185,-0.0749 0.008,-0.11173 -0.036,-0.1287 -0.0658,-0.0253 -1.04637,-0.10144 -1.54952,-0.12038 -0.16557,-0.006 0.24534,-0.0149 0.91312,-0.0193 0.66778,-0.004 1.21414,-0.002 1.21414,0.004 0,0.007 -0.25499,0.54413 -0.56665,1.19407 -1.50893,3.14675 -2.61009,5.78317 -3.81238,9.12765 -0.17435,0.485 -0.317,0.91191 -0.317,0.94869 0,0.0368 -0.17923,0.60625 -0.39828,1.26551 -1.35816,4.08752 -2.38279,7.92713 -3.30204,12.37383 -0.0521,0.25222 -0.11689,0.46595 -0.14389,0.47495 -0.027,0.009 -0.0491,-0.002 -0.0491,-0.0238 z"
         id="path20"
         transform="matrix(12.420313,0,0,12.420313,-271.67075,-2388.4325)" /><path
         style="fill:#6c63ff;fill-opacity:1;stroke-width:0.0857099;stroke-dasharray:0.0857099, 0.17142"
         d="m 354.74958,241.4744 c 0.0132,-0.17109 0.06,-0.7897 0.10383,-1.3747 0.20545,-2.73892 0.47272,-4.89111 1.00438,-8.08761 2.08192,-12.51723 5.58567,-22.98791 10.34175,-30.90551 0.89249,-1.48575 1.43457,-2.31436 1.44769,-2.2129 0.008,0.0629 -0.10898,0.28381 -0.35615,0.67168 -1.66363,2.61074 -2.9691,4.95055 -3.8495,6.89951 -0.18448,0.4084 -0.38492,0.85091 -0.44543,0.98336 -0.12,0.26266 -1.84031,4.90697 -2.35648,6.36172 -1.7115,4.82372 -3.12003,10.1084 -4.03839,15.15173 -0.73074,4.01293 -1.18688,7.90244 -1.45095,12.37224 l -0.0267,0.45154 h -0.19905 -0.19906 z"
         id="path21"
         transform="matrix(12.420313,0,0,12.420313,-271.67075,-2388.4325)" /><path
         style="fill:#6c63ff;fill-opacity:1;stroke-width:0.0857099;stroke-dasharray:0.0857099, 0.17142"
         d="m 377.75596,254.17777 c -0.0262,-6.41534 -0.0591,-8.73558 -0.14845,-10.46573 -0.13988,-2.70821 -0.41662,-4.16342 -0.94242,-4.95557 -0.32052,-0.48288 -0.78563,-0.7771 -1.58456,-1.00235 -0.30511,-0.086 -2.60622,-0.56823 -3.17529,-0.6654 -0.82152,-0.14027 -1.23984,-0.0952 -1.23975,0.13343 4e-5,0.1177 0.18598,0.50393 0.41285,0.85759 0.39362,0.61359 0.52778,1.01462 0.64679,1.93334 0.0844,0.65187 0.0763,0.85415 -0.0139,0.34751 -0.1531,-0.85951 -0.37672,-1.49356 -0.69624,-1.97419 -0.19999,-0.30083 -0.42097,-0.55868 -1.10662,-1.29131 -0.25084,-0.26802 -0.44389,-0.48731 -0.429,-0.48731 0.15473,0 2.91131,0.35285 3.49396,0.44723 2.13794,0.34633 3.33153,0.84313 4.01667,1.6718 0.54222,0.65582 0.68775,1.34289 0.8179,3.86139 0.10487,2.02932 0.19021,7.13964 0.22938,13.7369 l 0.0266,4.48531 h -0.14046 -0.14045 z"
         id="path22"
         transform="matrix(12.420313,0,0,12.420313,-271.67075,-2388.4325)" /><path
         style="fill:#6c63ff;fill-opacity:1;stroke-width:0.0857099;stroke-dasharray:0.0857099, 0.17142"
         d="m 371.13402,282.08576 c -0.12861,-0.0181 -0.25326,-0.0523 -0.27701,-0.0761 -0.0574,-0.0574 0.0672,-0.40132 0.38053,-1.05048 0.1332,-0.27594 0.28377,-0.63718 0.33461,-0.80274 0.11428,-0.37218 0.11938,-0.24776 0.0156,0.3813 -0.11108,0.67359 -0.10711,1.09098 0.0121,1.26783 0.12351,0.18328 0.24363,0.23601 0.53922,0.23672 0.68381,0.002 3.06386,-0.65079 3.69853,-1.01383 1.00612,-0.57551 1.43678,-1.76422 1.66829,-4.60477 0.16034,-1.96744 0.21303,-4.21753 0.24882,-10.62627 l 0.0279,-4.98703 h 0.12961 0.12961 l 0.0169,0.45154 c 0.0292,0.77836 -0.0415,10.61871 -0.0866,12.05114 -0.0438,1.3917 -0.1183,2.6401 -0.22403,3.75282 -0.19862,2.09029 -0.42107,2.68161 -1.4001,3.72179 -0.79378,0.84336 -1.345,1.07619 -2.92431,1.2352 -0.73848,0.0743 -1.96811,0.10811 -2.28967,0.0629 z"
         id="path23"
         transform="matrix(12.420313,0,0,12.420313,-271.67075,-2388.4325)" /><path
         style="fill:#6c63ff;fill-opacity:1;stroke-width:0.0857099;stroke-dasharray:0.0857099, 0.17142"
         d="m 441.50816,281.67163 c -0.28076,-0.63937 -0.31754,-2.11927 -0.34916,-14.04796 l -0.0255,-9.62285 h 0.15105 0.15104 l -0.0239,0.65222 c -0.0131,0.35873 -0.0341,4.07492 -0.0465,8.2582 -0.0238,8.00724 0.0187,13.84113 0.10344,14.17741 0.0263,0.10432 0.0921,0.23748 0.14623,0.29592 0.0848,0.0915 0.1225,0.10354 0.27139,0.0868 0.29998,-0.0338 0.59299,-0.27126 1.66887,-1.35242 l 1.02426,-1.0293 0.1527,-7.94552 c 0.084,-4.37004 0.17283,-9.11502 0.19743,-10.5444 0.0324,-1.88122 0.0573,-2.59887 0.0902,-2.59887 0.0329,0 0.0409,0.24031 0.029,0.87298 -0.009,0.48014 -0.0933,5.22886 -0.18736,10.55272 l -0.17094,9.67975 -0.7055,0.75588 c -0.76482,0.81944 -1.37446,1.38586 -1.88244,1.74897 -0.3991,0.28529 -0.49139,0.29469 -0.59423,0.0605 z"
         id="path24"
         transform="matrix(12.420313,0,0,12.420313,-271.67075,-2388.4325)" /><path
         style="fill:#6c63ff;fill-opacity:1;stroke-width:0.0857099;stroke-dasharray:0.0857099, 0.17142"
         d="m 441.19148,254.90026 c 0.0288,-3.51923 0.095,-5.1581 0.23491,-5.80986 0.0266,-0.12397 0.0328,0.20964 0.0198,1.06363 -0.0104,0.68433 -0.019,2.72982 -0.0191,4.54552 l -7e-5,3.30127 -0.13045,2e-5 -0.13044,3e-5 z"
         id="path25"
         transform="matrix(12.420313,0,0,12.420313,-271.67075,-2388.4325)" /><path
         style="fill:#6c63ff;fill-opacity:1;stroke-width:0.0857099;stroke-dasharray:0.0857099, 0.17142"
         d=""
         id="path26"
         transform="matrix(12.420313,0,0,12.420313,-271.67075,-2388.4325)" /><path
         style="fill:#6c63ff;fill-opacity:1;stroke-width:0.0857099;stroke-dasharray:0.0857099, 0.17142"
         d="m 444.98035,257.76 c 0.0357,-0.7307 0.0643,-10.53835 0.0317,-10.85637 l -0.0329,-0.3204 -0.16974,-0.0935 c -0.21131,-0.11646 -0.99413,-0.3168 -1.47543,-0.37759 -0.48574,-0.0614 -0.58882,-0.0176 -0.63421,0.26932 -0.0541,0.34222 -0.10974,0.55148 -0.1914,0.72026 -0.0809,0.16721 -0.0752,0.12235 0.0329,-0.25895 0.16375,-0.57748 -0.18226,-0.91602 -0.76353,-0.74705 -0.29497,0.0857 -0.48243,0.0829 -0.56529,-0.009 -0.0784,-0.0866 -0.0819,-0.12974 -0.0211,-0.26316 0.11413,-0.25049 0.55265,-0.26144 1.54007,-0.0385 0.54539,0.12316 2.47884,0.65345 2.51469,0.68971 0.0144,0.0146 -0.0166,2.34742 -0.0688,5.18411 -0.0523,2.83668 -0.0957,5.43411 -0.0964,5.77206 -8.4e-4,0.36551 -0.0165,0.60517 -0.0385,0.59153 -0.0204,-0.0126 -0.0469,0.009 -0.0589,0.0478 -0.012,0.0389 -0.0134,-0.10086 -0.003,-0.31057 z"
         id="path27"
         transform="matrix(12.420313,0,0,12.420313,-271.67075,-2388.4325)" /><path
         style="fill:#6c63ff;fill-opacity:1;stroke-width:0.0109941;stroke-dasharray:0.0109941, 0.0219881"
         d="m 445.21558,250.76194 c 0.005,-0.19786 0.0749,-4.17797 0.0749,-4.25374 v -0.0623 l -0.35653,-0.0988 c -0.19609,-0.0544 -0.56967,-0.15806 -0.83018,-0.23045 -0.97998,-0.2723 -1.38192,-0.37288 -1.78649,-0.44705 -0.61248,-0.11227 -0.9435,-0.0969 -1.09194,0.0506 -0.056,0.0556 -0.0817,0.11831 -0.0877,0.21391 -0.005,0.0829 0.01,0.13283 0.056,0.18314 0.0451,0.0493 0.11834,0.0776 0.21499,0.0829 0.0957,0.005 0.17714,-0.0114 0.35267,-0.0722 0.0698,-0.0242 0.21104,-0.0591 0.21658,-0.0536 9.4e-4,9.4e-4 -0.037,0.0287 -0.0843,0.0618 -0.0916,0.064 -0.19534,0.14371 -0.30993,0.2382 -0.2234,0.18419 -0.44285,0.33825 -0.5111,0.35881 -0.0182,0.005 -0.0204,0.005 -0.0349,-0.009 -0.0274,-0.0262 -0.0489,-0.11491 -0.0624,-0.25719 -0.008,-0.0864 -0.008,-0.39546 1.5e-4,-0.5097 0.0231,-0.31872 0.0647,-0.51889 0.1243,-0.59782 0.0456,-0.0604 0.10656,-0.0843 0.21482,-0.0843 0.16412,0 0.39852,0.0475 1.17097,0.23713 1.15405,0.28334 1.7846,0.42736 2.45691,0.56113 0.22621,0.045 0.41215,0.0827 0.41319,0.0837 10e-4,0.001 -0.0108,0.41176 -0.0263,0.9127 -0.0155,0.50094 -0.0306,1.00695 -0.0334,1.12447 -0.008,0.34164 -0.0229,1.47047 -0.0293,2.26915 l -0.004,0.43891 h -0.0254 -0.0255 z m -4.0284,-4.14331 c 0.17324,-0.10263 0.30204,-0.19989 0.37464,-0.28289 0.0581,-0.0664 0.0644,-0.0864 0.0305,-0.0976 -0.009,-0.003 -0.0663,-0.008 -0.12718,-0.0102 -0.0956,-0.004 -0.11701,-0.007 -0.15701,-0.0183 -0.19083,-0.0559 -0.25773,-0.20969 -0.1683,-0.38685 0.033,-0.0653 0.1117,-0.15508 0.173,-0.19726 0.0368,-0.0253 0.0767,-0.0417 0.12033,-0.0495 0.10091,-0.018 0.40169,-9.8e-4 0.6498,0.0368 0.50016,0.0761 1.33032,0.27708 2.57226,0.6228 0.41354,0.11512 0.52524,0.14187 0.59704,0.14299 0.057,8.9e-4 0.0742,-0.0154 0.0742,-0.0702 -3e-5,-0.0355 -0.0128,-0.0554 -0.0519,-0.0807 -0.0941,-0.0608 -0.291,-0.11461 -0.98029,-0.26783 -0.60301,-0.13404 -1.17729,-0.26516 -1.66036,-0.37909 -0.34586,-0.0816 -0.47813,-0.11161 -0.65222,-0.14815 -0.40153,-0.0843 -0.66434,-0.12406 -0.72932,-0.1104 -0.11559,0.0243 -0.17478,0.1168 -0.20125,0.3145 -0.0173,0.12897 -0.0197,0.19773 -0.0221,0.63413 l -0.002,0.44226 0.0249,-0.0144 c 0.0137,-0.008 0.0748,-0.0439 0.13565,-0.08 z"
         id="path28"
         transform="matrix(12.420313,0,0,12.420313,-271.67075,-2388.4325)" /><path
         style="fill:#6c63ff;fill-opacity:1;stroke-width:0.0109941;stroke-dasharray:0.0109941, 0.0219881"
         d="m 440.96239,250.79026 c 0.002,-0.0616 0.003,-0.58692 0.003,-1.1674 l 6e-5,-1.05543 0.38211,-0.35266 c 0.37587,-0.34691 0.65179,-0.61449 0.75384,-0.73107 0.20798,-0.23759 0.31455,-0.4186 0.35253,-0.59882 0.0145,-0.069 0.0155,-0.18842 0.002,-0.26354 -0.0268,-0.15133 -0.1155,-0.3648 -0.20713,-0.4987 -0.027,-0.0394 -0.0273,-0.0404 -0.0134,-0.0369 0.008,0.002 0.0315,0.0104 0.0525,0.0188 0.14121,0.0564 0.23827,0.18972 0.26612,0.36556 0.0104,0.0658 0.007,0.2194 -0.006,0.28999 -0.0278,0.15002 -0.0785,0.29226 -0.16155,0.45333 -0.0997,0.19329 -0.2228,0.36181 -0.42311,0.5792 -0.0974,0.10566 -0.14879,0.16671 -0.20167,0.2394 -0.1022,0.14049 -0.18341,0.30768 -0.24526,0.50491 -0.0134,0.0428 -0.0251,0.0709 -0.0322,0.0772 -0.011,0.01 -0.0111,0.01 -0.008,-3.7e-4 0.002,-0.006 0.01,-0.0346 0.0185,-0.0643 0.0425,-0.14803 0.0862,-0.25608 0.14662,-0.36238 0.0676,-0.11892 0.12236,-0.2358 0.1143,-0.24387 -0.0165,-0.0165 -0.16225,0.10062 -0.53456,0.42965 l -0.23039,0.20361 v 1.1629 1.16291 h -0.0163 -0.0163 z"
         id="path29"
         transform="matrix(12.420313,0,0,12.420313,-271.67075,-2388.4325)" /><path
         style="fill:#6c63ff;fill-opacity:1;stroke-width:0.0202027;stroke-dasharray:0.0202027, 0.0404054"
         d="m 445.15675,254.19231 c 0.003,-0.14439 0.0176,-0.94264 0.032,-1.77388 l 0.0263,-1.51135 h 0.023 0.023 l -0.006,0.63624 c -0.003,0.34992 -0.008,0.99384 -0.0111,1.43093 -0.003,0.43708 -0.007,0.94902 -0.0106,1.13764 l -0.006,0.34295 h -0.0383 -0.0383 z"
         id="path30"
         transform="matrix(12.420313,0,0,12.420313,-271.67075,-2388.4325)" /><path
         style="fill:#6c63ff;fill-opacity:1;stroke-width:0.0202027;stroke-dasharray:0.0202027, 0.0404054"
         d="m 445.07904,261.21215 c 3.7e-4,-0.10277 0.019,-1.14262 0.0413,-2.31078 l 0.0407,-2.12393 10e-4,1.21097 c 6.8e-4,0.66604 -0.002,1.70589 -0.005,2.31078 l -0.006,1.0998 h -0.0363 -0.0363 z"
         id="path31"
         transform="matrix(12.420313,0,0,12.420313,-271.67075,-2388.4325)" /><path
         style="fill:#6c63ff;fill-opacity:1;stroke-width:0.0202027;stroke-dasharray:0.0202027, 0.0404054"
         d="m 445.0309,261.35879 c -4.8e-4,-0.10792 0.11435,-6.58169 0.11939,-6.73129 l 0.006,-0.17266 h 0.0382 0.0382 l -0.006,0.92952 c -0.004,0.51123 -0.0104,1.60004 -0.0152,2.41957 -0.005,0.81953 -0.0117,1.96369 -0.0151,2.54256 -0.005,0.87699 -0.008,1.0525 -0.0191,1.0525 -0.0108,0 -0.0121,-0.4076 -0.008,-2.55675 0.003,-1.40621 0.006,-2.68021 0.008,-2.83111 0.002,-0.15397 9e-5,-0.25776 -0.004,-0.23652 -0.006,0.0306 -0.10527,5.33759 -0.10382,5.56052 3.7e-4,0.0577 -0.001,0.0639 -0.0185,0.0639 -0.0159,0 -0.019,-0.006 -0.0191,-0.0402 z"
         id="path32"
         transform="matrix(12.420313,0,0,12.420313,-271.67075,-2388.4325)" /><path
         style="fill:#6c63ff;fill-opacity:1;stroke-width:0.0202027;stroke-dasharray:0.0202027, 0.0404054"
         d="m 444.88918,268.13895 c 10e-6,-0.0204 0.0361,-2.06779 0.0803,-4.54981 0.0938,-5.27265 0.0946,-5.32323 0.0824,-5.45409 -0.006,-0.0611 -0.006,-0.10352 -4.6e-4,-0.1102 0.005,-0.006 0.0123,-0.0443 0.0166,-0.0851 0.007,-0.07 0.008,-0.0664 0.009,0.0629 0.002,0.2181 -0.17675,10.16232 -0.18258,10.16815 -0.003,0.003 -0.005,-0.0114 -0.005,-0.0318 z"
         id="path33"
         transform="matrix(12.420313,0,0,12.420313,-271.67075,-2388.4325)" /><path
         style="fill:#6c63ff;fill-opacity:1;stroke-width:0.0202027;stroke-dasharray:0.0202027, 0.0404054"
         d="m 444.95252,268.01912 c 0.002,-0.0846 0.0398,-2.12701 0.0837,-4.53877 0.11038,-6.06709 0.11755,-6.45437 0.12146,-6.55626 0.007,-0.19114 -0.01,9.20012 -0.0192,10.47062 l -0.006,0.77814 h -0.0921 -0.0921 z"
         id="path34"
         transform="matrix(12.420313,0,0,12.420313,-271.67075,-2388.4325)" /><path
         style="fill:#6c63ff;fill-opacity:1;stroke-width:0.0202027;stroke-dasharray:0.0202027, 0.0404054"
         d="m 444.91178,267.95762 c 0.003,-0.11838 0.0294,-1.57331 0.058,-3.23319 0.0285,-1.65988 0.0545,-3.08714 0.0576,-3.1717 0.005,-0.13807 0.007,-0.15374 0.0223,-0.15374 0.0149,0 0.0162,0.009 0.0131,0.0875 -0.002,0.0481 -0.0292,1.54989 -0.0607,3.33726 -0.0315,1.78736 -0.0594,3.27209 -0.0621,3.29941 -0.004,0.0365 -0.009,0.0497 -0.0196,0.0497 -0.0131,0 -0.014,-0.0242 -0.009,-0.21523 z"
         id="path35"
         transform="matrix(12.420313,0,0,12.420313,-271.67075,-2388.4325)" /><path
         style="fill:#6c63ff;fill-opacity:1;stroke-width:0.0202027;stroke-dasharray:0.0202027, 0.0404054"
         d="m 444.7189,278.90837 c 10e-6,-0.0273 0.0426,-2.44227 0.0946,-5.36657 0.052,-2.92431 0.0946,-5.32862 0.0946,-5.34293 1e-5,-0.0168 0.005,-0.026 0.0142,-0.026 0.0109,0 0.0143,0.0126 0.0147,0.0544 10e-4,0.12392 -0.1918,10.68998 -0.19548,10.70951 -0.008,0.0401 -0.0226,0.0213 -0.0226,-0.0284 z"
         id="path36"
         transform="matrix(12.420313,0,0,12.420313,-271.67075,-2388.4325)" /><path
         style="fill:#6c63ff;fill-opacity:1;stroke-width:0.0202027;stroke-dasharray:0.0202027, 0.0404054"
         d="m 441.06175,282.46334 c -0.0778,-0.18631 -0.13766,-1.34482 -0.17439,-3.37758 -0.0218,-1.20459 -0.047,-4.09626 -0.0473,-5.40915 l -9e-5,-0.48959 h 0.0457 0.0457 l 0.006,2.20198 c 0.0101,3.43812 0.0304,5.72522 0.054,6.0714 0.0209,0.30695 0.0862,0.72594 0.13284,0.85288 0.0273,0.0744 0.0599,0.11684 0.0897,0.11684 0.0761,0 0.46721,-0.1981 0.81195,-0.41122 0.58482,-0.36154 1.04987,-0.73256 1.51609,-1.20953 0.32829,-0.33586 0.52879,-0.57163 1.15583,-1.35914 l 0.42431,-0.53289 0.006,-1.12676 c 0.003,-0.61971 0.009,-1.90904 0.0125,-2.86516 l 0.006,-1.7384 h 0.026 0.026 l -0.005,0.65042 c -0.003,0.35773 -0.0101,1.64931 -0.0168,2.87016 l -0.0122,2.21974 -0.47186,0.61847 c -0.63986,0.83866 -0.70954,0.92216 -1.07278,1.28558 -0.88713,0.88755 -1.96865,1.60747 -2.4913,1.65837 l -0.0551,0.005 z"
         id="path37"
         transform="matrix(12.420313,0,0,12.420313,-271.67075,-2388.4325)" /><path
         style="fill:#6c63ff;fill-opacity:1;stroke-width:0.0202027;stroke-dasharray:0.0202027, 0.0404054"
         d="m 441.18576,282.40557 c -0.0561,-0.0561 -0.10622,-0.26004 -0.15083,-0.61405 -0.0131,-0.10407 -0.0282,-0.25307 -0.0335,-0.33112 -0.024,-0.35208 -0.0442,-2.60801 -0.0541,-6.03356 -0.006,-2.08598 -0.005,-2.23982 0.009,-2.23982 0.0145,0 0.0158,0.0455 0.0159,0.5842 5e-5,0.32131 0.004,1.29304 0.009,2.1594 0.022,3.76335 0.0565,5.53878 0.11891,6.10471 0.0231,0.20919 0.0616,0.3018 0.13088,0.31481 0.048,0.009 0.15866,-0.0329 0.36051,-0.13656 0.88076,-0.45218 1.75284,-1.19762 2.66877,-2.28121 0.0962,-0.11381 0.7968,-0.97901 0.79907,-0.9868 2.7e-4,-9.5e-4 0.009,-0.27631 0.0185,-0.61193 0.0171,-0.57975 0.0284,-1.55398 0.047,-4.06337 0.007,-0.97421 0.008,-0.90051 0.004,0.70482 -0.002,0.98604 -0.007,2.27511 -0.0102,2.86459 l -0.006,1.07179 -0.37454,0.47038 c -0.47858,0.60104 -0.57824,0.72404 -0.73073,0.90193 -0.38753,0.45205 -0.80863,0.86519 -1.19787,1.17523 -0.44734,0.35632 -1.11817,0.77394 -1.49129,0.92839 -0.0898,0.0372 -0.11109,0.0401 -0.13299,0.0182 z"
         id="path38"
         transform="matrix(12.420313,0,0,12.420313,-271.67075,-2388.4325)" /><path
         style="fill:#6c63ff;fill-opacity:1;stroke-width:0.112294;stroke-dasharray:0.112294, 0.224589"
         d="m 356.87074,256.61758 c -0.23441,-0.0227 -0.5302,-0.069 -0.65733,-0.10283 -0.36578,-0.0973 -0.82629,-0.36575 -0.93826,-0.54693 -0.49707,-0.80428 -0.79379,-4.52852 -0.71887,-9.02302 0.0331,-1.98693 0.10221,-3.93928 0.16796,-4.74591 l 0.0332,-0.40754 h 0.18398 0.18397 l -0.031,0.46013 c -0.0171,0.25307 -0.0459,2.3059 -0.0641,4.56185 -0.0426,5.28533 0.0539,8.36921 0.27677,8.84316 0.15658,0.33303 0.68369,0.58163 1.55351,0.7327 0.68405,0.1188 2.20096,0.0776 2.80875,-0.0762 0.94335,-0.23879 1.31009,-0.50852 1.49356,-1.09849 0.0608,-0.19552 0.16677,-0.68677 0.23548,-1.09169 0.20541,-1.21053 0.3187,-2.46565 0.57908,-6.41551 0.0453,-0.68714 0.0648,-0.856 0.0517,-0.44699 -0.0116,0.36153 -0.0461,1.62755 -0.0767,2.81337 -0.0932,3.60991 -0.17158,4.57642 -0.42658,5.25797 -0.22981,0.61424 -0.68587,0.99995 -1.36493,1.1544 -0.70136,0.15952 -2.33019,0.22464 -3.29018,0.13153 z"
         id="path39"
         transform="matrix(12.420313,0,0,12.420313,-271.67075,-2388.4325)" /><path
         style="fill:#6c63ff;fill-opacity:1;stroke-width:0.123787;stroke-dasharray:0.123787, 0.247574"
         d=""
         id="path40"
         transform="matrix(12.420313,0,0,12.420313,-271.67075,-2388.4325)" /><path
         style="fill:#6c63ff;fill-opacity:1;stroke-width:0.123787;stroke-dasharray:0.123787, 0.247574"
         d="m 370.89841,238.49403 c -0.12894,-0.18276 -0.44677,-0.57284 -0.7063,-0.86684 -0.46829,-0.53047 -0.61244,-0.74531 -0.31907,-0.4755 0.49864,0.45858 1.36456,1.56987 1.28514,1.64929 -0.0139,0.0139 -0.13083,-0.12419 -0.25977,-0.30695 z"
         id="path41"
         transform="matrix(12.420313,0,0,12.420313,-271.67075,-2388.4325)" /><rect
         style="fill:#7a4427;fill-opacity:1;stroke-width:29.1841;stroke-dasharray:29.1841, 58.3685"
         id="rect75"
         width="370.98068"
         height="186.08931"
         x="4689.771"
         y="1180.8844"
         ry="64.192039" /></g></g><path
     d="M900.18575,604.97238a6.41621,6.41621,0,0,0,6.1831,4.331l26.49183-.68178a6.3285,6.3285,0,0,0,5.98085-4.657l3.74888-40.08721a9.79409,9.79409,0,0,0,4.23793.87079,9.66133,9.66133,0,1,0-.4849-19.31658,8.18393,8.18393,0,0,0-1.73618.18056,6.54764,6.54764,0,0,0-4.87405-2.103l-40.75051,1.05229a5.85294,5.85294,0,0,0-1.00519.1248,6.36455,6.36455,0,0,0-4.87318,8.26464Zm43.17345-43.81684,2.66764-9.55274a6.50649,6.50649,0,0,0,.02036-3.37458c.12944-.00034.24363-.06169.37307-.062a6.91049,6.91049,0,0,1,.32357,13.81714A6.50527,6.50527,0,0,1,943.3592,561.15554Z"
     transform="translate(-206.59003 -163.87113)"
     fill="#2f2e41"
     id="path85" /><path
     d="M897.97751,544.68623c.86818,4.96412,10.62909,8.45387,22.36585,7.84729,10.79271-.49726,19.61745-4.287,21.23421-8.7785a6.02511,6.02511,0,0,0-1.84436-.24588l-40.75051,1.05229A5.85294,5.85294,0,0,0,897.97751,544.68623Z"
     transform="translate(-206.59003 -163.87113)"
     fill="#3f3d56"
     id="path86" /><path
     d="M922.49438,582.94415a.49659.49659,0,0,0,.15091-.06642l5.75315-3.76566a.49923.49923,0,0,0,.00032-.83621l-5.97978-3.91667a.49972.49972,0,1,0-.54792.83585l5.34091,3.49818-5.114,3.34794a.49991.49991,0,0,0,.39637.903Z"
     transform="translate(-206.59003 -163.87113)"
     fill="#6c63ff"
     id="path87" /><path
     d="M913.40762,583.36319a.5.5,0,0,0,.12608-.91842l-5.30306-3.04034,5.1256-3.80723a.49963.49963,0,1,0-.596-.80208l-5.73862,4.26265a.49951.49951,0,0,0,.04918.83476l5.96525,3.41968A.4997.4997,0,0,0,913.40762,583.36319Z"
     transform="translate(-206.59003 -163.87113)"
     fill="#6c63ff"
     id="path88" /><path
     d="M921.92215,586.24416a.48233.48233,0,0,0,.137-.05785.49976.49976,0,0,0,.16752-.68714l-8.15548-13.40836a.50026.50026,0,0,0-.85442.52058l8.15548,13.40835A.50035.50035,0,0,0,921.92215,586.24416Z"
     transform="translate(-206.59003 -163.87113)"
     fill="#6c63ff"
     id="path89" /><rect
     x="209.38454"
     y="260.82713"
     width="50.71916"
     height="10.8457"
     rx="3.26417"
     fill="#6c63ff"
     id="rect89" /><rect
     x="183.62601"
     y="282.51852"
     width="102.23622"
     height="10.8457"
     rx="3.26417"
     fill="#e6e6e6"
     id="rect90" /><rect
     x="183.62601"
     y="304.20991"
     width="102.23622"
     height="10.8457"
     rx="3.26417"
     fill="#e6e6e6"
     id="rect91" /><path
     d="M497.30123,540.717l.21675.68444.01142.02283,6.52515,19.838,7.50627,22.86094,14.1227,42.96133.13688,6.67346v.02283l1.04949,53.6845-2.90894,7.2781,3.274,11.93237s-1.50582-18.037-9.5824-7.67884c-4.57448,5.8864-9.92468,11.90961-14.31668,17.55642q9.59964,3.88436,19.50716,7.0271c1.426.45633,2.86334.88983,4.30071,1.32333q.46194.13692.924.27377a266.86342,266.86342,0,0,0,67.35086,10.82587c1.18637.03425,2.35.057,3.47932.07986.39932.01142.78714.02284,1.175.02284,1.27765.01142,2.54389.02277,3.82154.02277q3.86721,0,7.70018-.11405a266.85337,266.85337,0,0,0,56.09149-7.58613c-.12547-7.58606-.46768-16.44984-.9582-25.91819-.22817-4.64293-5.3502-9.67369-5.65823-14.53336-.21675-3.65047,4.38057-7.08419,4.141-10.79169-1.55143-22.82675-3.49075-14.06417-4.92813-30.22882q-.22245-2.37852-.41066-4.55165c-.924-10.381-1.56284-16.872-1.56284-16.872l6.13733-38.68338,9.6395-60.73442-.74153-1.22063-.83274-.41066-50.844-25.16532-2.76064-7.07276a10.97881,10.97881,0,0,0-10.14143-6.94731l-33.4929-.13688a10.93117,10.93117,0,0,0-8.90946,4.52888l-9.069,12.55978Z"
     transform="translate(-206.59003 -163.87113)"
     fill="#3f3d56"
     id="path91" /><path
     d="M533.40653,617.52479,525.8204,633.758l-5.179,11.08822-8.90939,46.646-4.46044,4.73414L503.45,679.467l-39.99772,8.88094c-1.31191-7.28951-.3512.24662-1.16117-7.75009.22817-.22817.46768-.45634.70727-.68451.63882-.59322,1.175-1.15218,1.1636-1.68831-.45633-27.58374.9126-74.52633,12.34311-102.96564a60.05328,60.05328,0,0,1,7.02709-13.1074c.22817-.308.44492-.61606.66167-.924,5.27034-7.3808,8.60136-14.64748,13.32415-19.81511v-.01142a.53028.53028,0,0,0,.07986-.07987.157.157,0,0,0,.04561-.03425l32.44341-17.20272,1.39177,39.10546.99247,28.10851Z"
     transform="translate(-206.59003 -163.87113)"
     fill="#3f3d56"
     id="path92" /><path
     d="M650.3914,622.13549l9.476,20.275,3.30742,7.06091,8.90681,46.64162,4.44575,4.72264,3.83039-16.75524,1.7998-.36918,32.4585-6.72243,9.46058,30.04631a17.984,17.984,0,0,0-3.26122-22.50556c-.64606-.58457-1.18444-1.15373-1.16913-1.69211.53847-32.4431-1.446-91.68363-19.36733-116.06588-5.69179-7.73777-9.1068-15.44474-14.07562-20.82885-.0154-.0153-.0154-.0307-.03071-.0307L674.0814,526.1139l-.73836-1.21533-.83066-.41528Z"
     transform="translate(-206.59003 -163.87113)"
     fill="#3f3d56"
     id="path93" /><path
     d="M750.58227,625.3079c-.01,1.75-.03,4.2-.11,7.23q-.015.63-.03,1.29c-.13,5.57-.26,10.24-.47,15.43-.01.36-.02.71-.04,1.07-.28,7.24-.72,15.67-1.48,29.02-1.41,24.66-3.87,3.39-6.34,12.04-.12.43-.25.94-.37,1.54a27.91582,27.91582,0,0,1-1.88,6.33c-1.31.78-2.66,1.53-3.99,2.28-3.79,2.11-7.63995,4.13995-11.51995,6.07-2.18006,1.08-4.37,2.14-6.57,3.16-.35.16-.69.32-1.03.47a270.88715,270.88715,0,0,1-34.75,13.26c-2.32.7-4.63,1.38-6.97,2.01-2.44.68-4.88,1.32-7.35,1.92a266.8933,266.8933,0,0,1-56.09,7.59c-2.55.08-5.12.11-7.7.11-1.28,0-2.54-.01-3.82-.02-.39,0-.78-.01-1.17-.02-1.13-.03-2.3-.05-3.48-.08a266.66307,266.66307,0,0,1-67.35-10.83l-.93-.27c-1.44-.44-2.87-.87-4.3-1.33q-9.90006-3.135-19.51-7.02-7.335-2.955-14.5-6.34a.33861.33861,0,0,1-.12-.06c-1-.46-2.01-.94-3.01-1.43-.13-.07-.27-.14-.41-.21q-5.59506-2.73-11.07-5.72c-3.07-7.05005-7.39-8.4-10.07-14.6a25.87356,25.87356,0,0,1-1.68-5.74c0-.02-.01-.04-.01-.07.28,3.72-1.19-6.6-.01-.04-.01-.12-.02-.25-.03-.4-.03-.36-.06994-.8-.12994-1.35-3.43-33.49-3.21-71.79-4.7-103.35q-.15006-3.06-.31-5.86c-.03-.62-.07-1.23-.11005-1.83.07-.18.15-.37.24-.55a1.002,1.002,0,0,1,.07-.15,1.62294,1.62294,0,0,1,.1-.18c.02-.03.05-.07.07-.1a.91693.91693,0,0,1,.05-.1c.09-.14.19-.29.3-.43.05-.06.09-.11005.14-.16a.80824.80824,0,0,1,.12-.14.637.637,0,0,1,.11-.13c.04-.04.08-.09.13-.13995a.30159.30159,0,0,1,.08-.08,2.03313,2.03313,0,0,1,.26-.25,9.62387,9.62387,0,0,1,1.14-.9c.13995-.09.29-.18.43-.28a19.13528,19.13528,0,0,1,3.17-1.52c.38-.14.76-.27,1.17-.41.15-.04.29-.09.44-.14.22-.07.44-.14.67-.19,1.14-.34,2.37-.63,3.7-.9.16-.03.33-.06.5-.1.24-.05.49-.09.74-.13.34-.06.69-.12,1.04-.18,2.97-.47,6.34-.82,10.06-1.05q.525-.03,1.05-.06c.41-.02.82-.04,1.24-.06.35-.02.71-.03,1.07-.04.35-.02.71-.03,1.08-.04,1.01-.03,2.05-.06,3.11-.08,3.02-.06,6.2-.04,9.54.03,1.55.04,3.13.08,4.75.15.11005,0,.21.01.31.01,1.41.05,2.83.11,4.29.19,1.02.05,2.05.1,3.07995.16.97.06,1.95.12,2.94.19.77.04,1.54.1,2.32.15.66.05,1.32.1,1.98.14l.9.06c.49.04.98.07,1.48.12,1.1.09,2.2.18,3.32.27,1.11.1,2.24.2,3.37.3s2.27.21,3.41.32c.12.01.23.02.34.03,1.04.11005,2.08.21,3.13.32.24.02.49.04.73.07,1.0011.10058,2.02173.21832,3.032.32568.31006.03345.61847.06586.92944.09985.79139.08618,1.57154.16089,2.36847.25446,1.05.12,2.12006.23,3.16.37.81.09,1.62.18,2.43.28,1.27.15,2.56.31,3.85.48.49.06.98.12,1.47.19,3.68.46,7.4.97,11.18,1.5,5.73.81,11.55,1.69,17.41,2.64q8.80509,1.425,17.71,3.01c1.5.27,3,.54,4.51.82q1.02.19491,2.04.38995c1.16.21,2.32.43,3.48.65,1.16.22,2.32.44,3.48.67,1.38.27,2.77.54,4.15.81,9.09,1.8,18.12994,3.72,26.95,5.73,1.45.32995,2.9.67,4.34,1q4.32,1.005,8.56,2.04c.78.18,1.55.37,2.32.56,1.92.48,3.84.96,5.73,1.45l.33.09c1.39.34,2.75.69,4.11,1.05q4.815,1.26,9.47,2.55,3.09.855,6.11,1.73c3.01.87,5.96,1.75,8.83,2.64.71.22,1.42.44,2.12.65,2.1.65,4.17,1.31,6.18,1.97,1.6.52,3.16,1.05,4.7,1.58q2.31.795,4.53,1.59c.95.34,1.89.7,2.83,1.04,1.35.5,2.68,1,3.98,1.5.4.15.79.31,1.18.46.25.11.49.2.73.3.47.19.95.37,1.41.56.47.18.93.37,1.39.57.45.18.91.37,1.35.56.45.18.89.37,1.33.57.37.15.73.31,1.08.47.71.31,1.42.62,2.11.94.34.16.68.31,1.02.47l.78.36c.11.06.22.11.33.16.25.12.51.25.76.37.57995.27,1.15.56,1.71.83.75.38,1.48.76,2.18,1.13.71.37994,1.4.76,2.06,1.12994.11.06.21.12006.32.18006.15.07995.3.17.45.25.51.29,1,.59,1.49.87994.96.59,1.87,1.17,2.72,1.75.19.13.37.26.56.38.63.45,1.23.89,1.79,1.34,0,.01,0,.01.01.01.19.14.37.29.55.43.15.14.31.26.46.4.52.45,1,.87994,1.44,1.32a5.667,5.667,0,0,1,.42.43,1.20839,1.20839,0,0,1,.16.16c.2.2.38.4.55.6a.55257.55257,0,0,1,.07.09c.24.28.46.56.67.84.1.14.21.28.3.42.12.17.24.35.34.52.09.14.17.29.25.43006a7.2566,7.2566,0,0,1,.54,1.12994,5.2413,5.2413,0,0,1,.27.82A5.84442,5.84442,0,0,1,750.58227,625.3079Z"
     transform="translate(-206.59003 -163.87113)"
     fill="#2f2e41"
     id="path95" /><path
     d="M750.58227,625.3079c-.01,1.75-.03,4.2-.11,7.23-.01.42-.03.85-.04,1.29-.1,4.25-.25,9.5-.46,15.43-.01.36-.02.71-.04,1.07-.28,7.24-.72,15.67-1.48,29.02-1.41,24.66-3.87,3.39-6.34,12.04-6.86-4.22-14.38-8.64-22.42-13.18q-2.175-1.23-4.39-2.47c-16.08-8.97-34.04-18.37006-52.79-27.68-.74-.37-1.49-.74-2.23-1.1-42.95-21.23-89.83-41.88-127.81-55.66-7.33-2.66-14.33-5.06-20.91-7.17005-13.86-4.43-25.84-7.53-35.06-8.87-9.6-1.4-16.23-.9-18.91,1.99q-.15006-3.06-.31-5.86-.06006-.93-.12-1.83c.06171-.16462.14191-.32172.21955-.48017.01111-.02313.019-.047.03045-.06982a1.002,1.002,0,0,1,.07-.15,1.62294,1.62294,0,0,1,.1-.18,1.05985,1.05985,0,0,1,.12-.2c.09-.14.19-.29.3-.43a3.48261,3.48261,0,0,1,.26-.30005.637.637,0,0,1,.11-.13c.04-.04.08-.09.13-.13995a.30159.30159,0,0,1,.08-.08,2.03313,2.03313,0,0,1,.26-.25,9.62387,9.62387,0,0,1,1.14-.9c.13995-.09.29-.18.43-.28a19.13528,19.13528,0,0,1,3.17-1.52c.38-.14.76-.27,1.17-.41.15-.04.29-.09.44-.14.22-.07.44-.14.67-.19,1.14-.34,2.37-.63,3.7-.9.4-.08.82-.16,1.24-.23.34-.06.69-.12,1.04-.18,2.97-.47,6.34-.82,10.06-1.05q.525-.03,1.05-.06c.41-.02.82-.04,1.24-.06.35-.02.71-.03,1.07-.04.35-.02.71-.03,1.08-.04,1.01-.03,2.05-.06,3.11-.08,3.02-.05,6.2-.03,9.54.04,1.55.03,3.13.08,4.75.15.1,0,.21.01.31.01,1.41.04,2.84.11,4.29.18,1.02.05,2.05.1,3.07995.16.97.06,1.95.12,2.94.19.77.04,1.54.1,2.32.15.66.05,1.32.1,1.98.14.79.06,1.58.12,2.38.18,1.1.09,2.2.18,3.32.27,1.11.1,2.24.2,3.37.3s2.27.21,3.41.32c.12.01.23.02.34.03,1.04.11005,2.08.21,3.13.32q8.73.885,17.97,2.07,5.52.705,11.18,1.51c5.73.81,11.55,1.69,17.41,2.63q8.80509,1.425,17.71,3.01c1.5.27,3,.54,4.51.82q2.76.50994,5.52,1.04c1.16.22,2.32.44,3.48.67,1.38.27,2.77.54,4.15.81,9.09,1.8,18.12994,3.72,26.95,5.73,1.45.32995,2.9.67,4.34,1q4.32,1.005,8.56,2.04c.78.19,1.55.38,2.32.57q2.895.72,5.73,1.44v.01c.11.02.22.05.33.08,1.38.35,2.75.7,4.11,1.06q4.815,1.26,9.47,2.54c2.06.57995,4.1,1.15,6.11,1.73,3.01.88,5.96,1.76,8.83,2.64.71.22,1.42.44,2.12.65q3.15.99,6.18,1.97c1.6.52,3.16,1.05,4.7,1.58q2.31.795,4.53,1.59c.96.34,1.9.69,2.83,1.03,1.36.5,2.68,1,3.98,1.51.4.15.79.31,1.18.46.73.28,1.44.57,2.14.86.47.18.93.37,1.39.57.45.18.91.37,1.35.56.45.18.89.37,1.33.57.37.15.73.31,1.08.47.71.31,1.42.62,2.11.94.34.16.68.31,1.02.47l.78.36c.11.06.22.11.33.16.85.4,1.67.8,2.47,1.2.75.38,1.48.76,2.18,1.13.83.43994,1.62.87,2.38,1.31.15.07995.3.17.45.25.51.29,1,.59,1.49.87994.96.59,1.87,1.17,2.72,1.75.84.58,1.62,1.15,2.35,1.72,0,.01,0,.01.01.01.35.28.69.56,1.01.83.52.45,1,.87994,1.44,1.32a5.667,5.667,0,0,1,.42.43,1.20839,1.20839,0,0,1,.16.16c.21.23.42.46.62006.69.24.28.46.56.67.84.1.14.21.28.3.42.12.17.24.35.34.52.09.14.17.29.25.43006a7.2566,7.2566,0,0,1,.54,1.12994,6.05312,6.05312,0,0,1,.27.82A5.84442,5.84442,0,0,1,750.58227,625.3079Z"
     transform="translate(-206.59003 -163.87113)"
     opacity="0.2"
     id="path96" /></svg>
